<svg preserveAspectRatio="none" width="100%" height="100%" overflow="visible" style="display: block;" viewBox="0 0 24 24" fill="none" xmlns="http://www.w3.org/2000/svg">
<g id="Intermediate">
<path id="Vector" d="M12 24C18.6274 24 24 18.6274 24 12C24 5.37258 18.6274 0 12 0C5.37258 0 0 5.37258 0 12C0 18.6274 5.37258 24 12 24Z" fill="var(--fill-0, black)"/>
<path id="Vector (Stroke)" d="M1.65063 11.9305C1.65063 7.00256 4.98799 2.85416 9.51685 1.68338L10.0168 3.61893C6.36313 4.56358 3.65063 7.92239 3.65063 11.9305C3.65074 15.9384 6.36326 19.2963 10.0168 20.241L9.51685 22.1775C4.98806 21.0068 1.65074 16.8583 1.65063 11.9305ZM20.2092 11.9305C20.2092 7.92231 17.4958 4.5635 13.842 3.61893L14.343 1.68338C18.8718 2.85418 22.2092 7.00257 22.2092 11.9305C22.2091 16.8583 18.8718 21.0068 14.343 22.1775L13.842 20.241C17.4958 19.2964 20.2091 15.9385 20.2092 11.9305Z" fill="var(--fill-0, #3BB54A)"/>
<path id="I" d="M11.15 16V8H12.85V16H11.15Z" fill="var(--fill-0, white)"/>
</g>
</svg>
