<svg preserveAspectRatio="none" width="100%" height="100%" overflow="visible" style="display: block;" viewBox="0 0 24 24" fill="none" xmlns="http://www.w3.org/2000/svg">
<g id="Soft">
<path id="Vector" d="M12 24C18.6274 24 24 18.6274 24 12C24 5.37258 18.6274 0 12 0C5.37258 0 0 5.37258 0 12C0 18.6274 5.37258 24 12 24Z" fill="var(--fill-0, black)"/>
<path id="Vector (Stroke)" d="M1.65063 11.9305C1.65063 7.00256 4.98799 2.85416 9.51685 1.68338L10.0168 3.61893C6.36313 4.56358 3.65063 7.92239 3.65063 11.9305C3.65074 15.9384 6.36326 19.2963 10.0168 20.241L9.51685 22.1775C4.98806 21.0068 1.65074 16.8583 1.65063 11.9305ZM20.2092 11.9305C20.2092 7.92231 17.4958 4.5635 13.842 3.61893L14.343 1.68338C18.8718 2.85418 22.2092 7.00257 22.2092 11.9305C22.2091 16.8583 18.8718 21.0068 14.343 22.1775L13.842 20.241C17.4958 19.2964 20.2091 15.9385 20.2092 11.9305Z" fill="var(--fill-0, #D8261E)"/>
<path id="S" d="M12.1519 16.1861C10.006 16.1861 8.76358 15.0803 8.65063 13.3427L10.6159 13.2525C10.7401 14.1213 11.2258 14.6064 12.1745 14.6064C12.9426 14.6064 13.3718 14.3357 13.3718 13.7941C13.3718 13.2976 13.1233 13.0155 11.7566 12.7222C9.63326 12.2708 8.79746 11.6954 8.79746 10.2737C8.79746 8.8182 9.9608 7.814 11.9148 7.814C13.993 7.814 15.0659 8.96488 15.2354 10.5784L13.2927 10.6686C13.2136 9.89009 12.728 9.39364 11.8922 9.39364C11.1919 9.39364 10.774 9.72085 10.774 10.206C10.774 10.7589 11.1241 10.9958 12.2988 11.2215C14.6029 11.6503 15.3483 12.4627 15.3483 13.7038C15.3483 15.2383 14.1398 16.1861 12.1519 16.1861Z" fill="var(--fill-0, white)"/>
</g>
</svg>
