<svg preserveAspectRatio="none" width="100%" height="100%" overflow="visible" style="display: block;" viewBox="0 0 24 24" fill="none" xmlns="http://www.w3.org/2000/svg">
<g id="Aston Martin" clip-path="url(#clip0_714_1133)">
<path id="Vector" d="M7.27625 11.2198H7.56L7.41825 10.8483L7.27625 11.2198ZM6.98025 11.5843L7.39325 10.591H7.50075L7.91375 11.5843H7.69775L7.60275 11.3352H7.23225L7.13575 11.5843H6.98025ZM7.97275 11.5382L7.9565 11.3588C8.051 11.4398 8.1505 11.48 8.25525 11.48C8.315 11.48 8.35975 11.468 8.39025 11.4445C8.448 11.3995 8.448 11.3195 8.406 11.2695C8.37025 11.2265 8.308 11.2 8.15875 11.128C8.0265 11.064 7.9605 10.9708 7.9605 10.8485C7.9605 10.7633 7.9895 10.6952 8.04725 10.6447C8.174 10.534 8.3835 10.5762 8.4045 10.58C8.4445 10.5875 8.48325 10.599 8.52075 10.615L8.5375 10.7858C8.49875 10.7568 8.45639 10.733 8.4115 10.715C8.27725 10.664 8.134 10.6985 8.134 10.815C8.134 10.872 8.17025 10.911 8.2455 10.95C8.418 11.0382 8.49975 11.0725 8.5615 11.1508C8.637 11.2473 8.64125 11.4335 8.5195 11.5308C8.456 11.5813 8.3685 11.6065 8.2565 11.6065C8.10975 11.6065 8.01125 11.56 7.97275 11.5382ZM8.90925 11.5843V10.712C8.82875 10.7137 8.7435 10.7195 8.61425 10.7358L8.62575 10.5913H9.3815L9.39275 10.7358C9.2946 10.7223 9.19578 10.7144 9.09675 10.712V11.5843H8.90925ZM9.8925 11.4853C10.0455 11.4853 10.1842 11.3617 10.1842 11.0875C10.1842 11.0645 10.19 10.8447 10.0472 10.738C10.0024 10.7052 9.94785 10.6881 9.89225 10.6895C9.68825 10.6895 9.6005 10.881 9.6005 11.0875C9.6005 11.36 9.73875 11.4853 9.8925 11.4853ZM9.8925 11.6065C9.599 11.6065 9.3965 11.3915 9.3965 11.0875C9.3965 10.7835 9.60075 10.5685 9.8925 10.5685C10.184 10.5685 10.3883 10.779 10.3883 11.0875C10.3883 11.3957 10.1862 11.6065 9.8925 11.6065ZM10.5398 11.584V10.591H10.6418L11.2297 11.266V10.591H11.3685V11.5843H11.2653L10.6788 10.908V11.5843H10.5398V11.584ZM11.8925 11.584L12.0028 10.591H12.1032L12.4528 11.2837L12.7902 10.591H12.8905L13.001 11.5843H12.801L12.7448 10.9705L12.4692 11.5437H12.3785L12.099 10.9773L12.0425 11.584H11.8925ZM13.3807 11.2198H13.6645L13.5225 10.8483L13.3807 11.2198ZM13.0848 11.5843L13.4978 10.591H13.6053L14.018 11.5843H13.802L13.707 11.3352H13.337L13.2402 11.5843H13.0848ZM14.2937 11.043C14.3205 11.0475 14.3467 11.05 14.3722 11.05C14.5325 11.05 14.5723 10.957 14.5723 10.8763C14.5723 10.7545 14.4865 10.7037 14.3643 10.7037C14.3423 10.7037 14.3187 10.705 14.2942 10.7078V11.043H14.2937ZM14.1067 11.5843V10.5992C14.1797 10.5903 14.2532 10.5861 14.3267 10.5868C14.4152 10.5868 14.4918 10.597 14.557 10.618C14.6518 10.6483 14.7635 10.7168 14.7635 10.8663C14.7635 10.9283 14.7445 10.9838 14.7065 11.0323C14.6657 11.0827 14.6101 11.119 14.5475 11.136L14.893 11.584H14.6655L14.3573 11.1595H14.2937V11.584H14.1062H14.1067V11.5843ZM15.1243 11.5843V10.712C15.0438 10.7137 14.9585 10.7195 14.8295 10.7358L14.8407 10.5913H15.5965L15.6078 10.7358C15.5096 10.7225 15.4108 10.7145 15.3118 10.712V11.5843H15.1243ZM15.7355 10.5907H15.923V11.584H15.7355V10.5907ZM16.1155 11.5843V10.591H16.2178L16.8058 11.266V10.591H16.9445V11.5843H16.8412L16.2547 10.908V11.5843H16.1155Z" fill="var(--fill-0, white)"/>
<path id="Vector_2" d="M23.958 9.42875C23.8945 9.315 23.7697 9.25 23.6155 9.25H13.944C13.7808 9.25 13.534 9.25 13.2775 9.50925C13.1938 9.59425 13.147 9.67825 13.1058 9.7525C13.026 9.8965 12.9688 10 12.7043 10H11.295C11.0305 10 10.9733 9.89625 10.8935 9.7525C10.8523 9.67825 10.806 9.59375 10.7218 9.50925C10.4655 9.25 10.2188 9.25 10.0555 9.25H0.385C0.23075 9.25 0.10625 9.315 0.0425 9.42875C-0.021 9.542 -0.013 9.687 0.064 9.816L0.2385 10.1095C0.3325 10.272 0.456 10.297 0.5465 10.3153C0.629 10.332 0.67825 10.342 0.742 10.4545L0.89525 10.727C1.01425 10.9495 1.15775 10.977 1.262 10.9972C1.34275 11.0122 1.4185 11.0195 1.52075 11.2075C1.62075 11.3908 1.771 11.6675 2.13625 11.7775L5.7445 12.8407C6.12 12.9637 6.2185 13.104 6.33575 13.2793C6.40575 13.3833 6.5905 13.6593 7.049 13.7843L10.48 14.7207C10.8472 14.8207 11.0793 14.6392 11.1863 14.5437L11.8088 13.9485C11.894 13.8665 11.948 13.8348 12.0003 13.8348C12.0525 13.8348 12.1062 13.8665 12.1917 13.9485L12.8143 14.5435C12.9218 14.64 13.1543 14.8202 13.5203 14.7205L16.9512 13.7837C17.41 13.6592 17.595 13.383 17.6645 13.279C17.7812 13.1058 17.8775 12.9645 18.256 12.8405L21.8642 11.7775C22.2292 11.6675 22.3802 11.3905 22.4795 11.2072C22.5775 11.0272 22.6507 11.0137 22.7282 10.999C22.8315 10.9792 22.9817 10.9573 23.1047 10.7268L23.2582 10.4543C23.3215 10.342 23.3713 10.332 23.4535 10.3153C23.544 10.297 23.6677 10.272 23.7617 10.1095L23.936 9.816C24.0128 9.6865 24.021 9.542 23.9577 9.4285L23.958 9.42875ZM17.3525 10.2317V11.943H6.64775V10.2317H17.3525ZM13.5133 14.4575C13.2493 14.4575 13.158 14.2287 13.0908 14.0492C13.0143 13.8447 12.59 12.499 12.4728 12.1292H13.0003C13.2878 12.6167 13.806 13.4918 14.0325 13.8505C14.073 13.9143 14.1875 14.113 14.396 14.2345C13.5825 14.4567 13.6033 14.457 13.5135 14.457L13.5133 14.4575ZM14.762 14.1125C14.4663 14.1125 14.311 13.8815 14.2168 13.732C14.023 13.4253 13.5838 12.6873 13.2545 12.1295H13.8405C14.2105 12.5263 14.9923 13.3645 15.3 13.675C15.3465 13.722 15.4457 13.8285 15.5892 13.909C14.8762 14.1035 14.8733 14.1123 14.7618 14.1123L14.762 14.1125ZM15.9605 13.7898C15.73 13.7898 15.569 13.6355 15.4543 13.5192C15.1833 13.2455 14.5398 12.5583 14.1403 12.1298H14.7815C15.1893 12.4325 16.13 13.1292 16.4995 13.3842C16.5675 13.4312 16.7007 13.5142 16.8572 13.5632C16.03 13.7892 16.0478 13.7898 15.9605 13.7898ZM17.4695 13.1458C17.3635 13.3045 17.2853 13.3833 17.1063 13.3833C16.9413 13.3833 16.7637 13.2992 16.6227 13.202C16.3165 12.9905 15.6113 12.4713 15.1503 12.1295H15.913C16.8485 12.6018 17.241 12.812 17.5097 12.891C17.558 12.9052 17.6023 12.9153 17.6443 12.9213C17.5743 12.9925 17.525 13.0645 17.4695 13.1462V13.1458ZM17.7535 12.7087C17.5392 12.7087 17.2615 12.5657 16.4007 12.1292H17.2348L18.404 12.4307C18.4835 12.4515 18.557 12.4693 18.625 12.4838C17.97 12.6765 17.8707 12.7087 17.7535 12.7087ZM20.039 12.0675C19.3475 12.2713 19.236 12.3158 19.0403 12.3158C18.91 12.3158 18.7385 12.2907 18.4587 12.2175H18.458L17.537 11.98V11.6475L20.039 12.0675ZM20.7532 11.8573C20.5327 11.913 20.3277 11.8948 20.004 11.8383H20.0035L17.5375 11.424V11.159L21.5697 11.6167L20.7532 11.8573ZM22.2737 11.093C22.2425 11.1503 22.2112 11.2055 22.1767 11.2565C22.0362 11.449 21.9495 11.439 21.5175 11.389L17.537 10.9375V10.688L22.127 10.9598C22.162 10.9615 22.2545 10.968 22.349 10.9738C22.3238 11.0075 22.2985 11.0468 22.2737 11.093ZM23.0543 10.3365L22.926 10.5645C22.7927 10.7832 22.7262 10.7795 22.3367 10.7522L17.537 10.4672V10.266H23.1C23.0835 10.2886 23.0684 10.3121 23.0547 10.3365H23.0543ZM23.7345 9.69325L23.6087 9.90575C23.5207 10.0453 23.486 10.0452 23.1887 10.0452H13.196C13.303 9.922 13.33 9.79275 13.4445 9.67725C13.6325 9.48725 13.7955 9.488 13.9443 9.488H23.615C23.682 9.488 23.732 9.50875 23.7527 9.546C23.7737 9.5835 23.7667 9.6385 23.7342 9.6935L23.7345 9.69325ZM10.9832 14.4043C11.025 14.3425 11.0635 14.2617 11.114 14.127C11.1923 13.917 11.6318 12.524 11.7565 12.1295H12.2437C12.3687 12.524 12.808 13.917 12.8862 14.127C12.9367 14.2622 12.9758 14.3428 13.0173 14.4045C13.0019 14.3928 12.9871 14.3804 12.9728 14.3675L12.3535 13.775C12.2565 13.6825 12.1465 13.5965 12.0003 13.5965C11.854 13.5965 11.744 13.6825 11.6468 13.7753L11.0273 14.3678C11.0125 14.3808 10.9975 14.3928 10.983 14.404L10.9832 14.4043ZM9.60425 14.235C9.813 14.1132 9.9275 13.9145 9.968 13.8507C10.1945 13.4922 10.7128 12.617 11.0003 12.1298H11.5278C11.4108 12.4993 10.9863 13.8448 10.9098 14.0495C10.8428 14.229 10.7513 14.4578 10.4873 14.4578C10.3973 14.4578 10.418 14.457 9.60425 14.2353V14.235ZM8.41125 13.909C8.5545 13.8285 8.654 13.722 8.7005 13.675C9.008 13.3643 9.79 12.5265 10.1598 12.1292H10.7458C10.4168 12.6867 9.97775 13.4253 9.78375 13.732C9.6895 13.8815 9.53425 14.1123 9.2385 14.1123C9.1275 14.1123 9.12425 14.1035 8.41125 13.909ZM7.143 13.563C7.27035 13.5209 7.39093 13.4606 7.501 13.384C7.87025 13.129 8.8115 12.4322 9.219 12.1292H9.86025C9.4605 12.5582 8.81725 13.2455 8.54625 13.519C8.4315 13.6353 8.27025 13.7893 8.04 13.7893C7.9525 13.7893 7.97 13.789 7.143 13.563ZM6.35625 12.921C6.398 12.915 6.44225 12.905 6.49075 12.8907C6.7595 12.8115 7.152 12.6012 8.08725 12.1292H8.85025C8.38925 12.471 7.68425 12.9902 7.37775 13.2017C7.23675 13.299 7.05875 13.3827 6.89425 13.3827C6.715 13.3827 6.637 13.3043 6.531 13.1453C6.4755 13.064 6.42575 12.9925 6.35625 12.921ZM5.37525 12.484C5.4435 12.4698 5.51675 12.452 5.5965 12.431L6.76575 12.1298H7.6C6.73925 12.5663 6.461 12.7093 6.24725 12.7093C6.12975 12.7093 6.0305 12.6773 5.3755 12.4843L5.37525 12.484ZM6.46325 11.6473V11.9797L5.54225 12.2175H5.54175C5.26175 12.2912 5.0905 12.316 4.96 12.316C4.76475 12.316 4.653 12.2715 3.96125 12.0677L6.46325 11.6477V11.6473ZM2.431 11.6167L6.4635 11.1593V11.424L3.99725 11.838H3.99675C3.67275 11.8943 3.468 11.9128 3.2475 11.8573L2.431 11.6167ZM1.6515 10.9735C1.74575 10.9678 1.8385 10.961 1.87325 10.9593L6.46325 10.6875V10.937L2.483 11.3888C2.05075 11.4388 1.96375 11.4488 1.8235 11.2563C1.78874 11.2032 1.75646 11.1485 1.72675 11.0925C1.70449 11.0511 1.67934 11.0114 1.6515 10.9735ZM0.901 10.266H6.4635V10.4668L1.664 10.7517C1.27475 10.7792 1.208 10.7825 1.07475 10.5642L0.9465 10.3363C0.9315 10.31 0.9165 10.2862 0.9015 10.2657L0.901 10.266ZM0.24725 9.546C0.26775 9.50925 0.318 9.488 0.385 9.488H10.0562C10.2052 9.488 10.368 9.48725 10.556 9.67725C10.6703 9.79325 10.6975 9.92225 10.8045 10.0452H0.812C0.51475 10.0452 0.48 10.0453 0.392 9.9055L0.26625 9.69325C0.23375 9.6385 0.22675 9.58325 0.24775 9.54575L0.24725 9.546Z" fill="var(--fill-0, white)"/>
</g>
<defs>
<clipPath id="clip0_714_1133">
<rect width="24" height="24" fill="white"/>
</clipPath>
</defs>
</svg>
