<svg width="24" height="24" viewBox="0 0 24 24" fill="none" xmlns="http://www.w3.org/2000/svg">
<path d="M19.9325 8C18.9626 7.99868 18.0245 8.34514 17.2882 8.9765C16.5522 8.34501 15.6141 7.99852 14.6442 8C13.6744 7.9987 12.7362 8.34516 12 8.9765C11.2639 8.34495 10.3256 7.99846 9.35575 8C8.38599 7.99876 7.44791 8.34522 6.71175 8.9765C5.97566 8.34493 5.0374 7.99844 4.0675 8C1.821 8 0 9.821 0 12.0675C0 14.314 1.821 16.135 4.0675 16.135C5.03737 16.1364 5.97558 15.7899 6.71175 15.1585C7.44777 15.79 8.38594 16.1365 9.35575 16.135C10.3655 16.135 11.2887 15.7675 12 15.1585C12.7361 15.7901 13.6744 16.1366 14.6442 16.135C15.6537 16.135 16.577 15.7675 17.2882 15.1585C18.0243 15.7901 18.9626 16.1366 19.9325 16.135C22.179 16.135 24 14.314 24 12.0675C24 9.821 22.179 8 19.9325 8ZM17.2887 13.9655C16.8907 13.4128 16.6773 12.7486 16.6787 12.0675C16.6774 11.3866 16.8908 10.7226 17.2887 10.17C17.6867 10.7226 17.9001 11.3866 17.8988 12.0675C17.9002 12.7486 17.6868 13.4128 17.2887 13.9655ZM12.0007 13.9655C11.6027 13.4128 11.3893 12.7486 11.3907 12.0675C11.3894 11.3866 11.6028 10.7226 12.0007 10.17C12.3987 10.7226 12.6121 11.3866 12.6108 12.0675C12.6122 12.7486 12.3988 13.4128 12.0007 13.9655ZM6.7125 13.9655C6.31448 13.4128 6.10101 12.7486 6.1025 12.0675C6.10111 11.3866 6.31458 10.7226 6.7125 10.17C7.11042 10.7226 7.32389 11.3866 7.3225 12.0675C7.32399 12.7486 7.11052 13.4128 6.7125 13.9655ZM4.06875 15.322C3.64128 15.3227 3.21789 15.2389 2.82295 15.0753C2.42801 14.9118 2.06931 14.6717 1.7675 14.369C1.46483 14.0672 1.22482 13.7085 1.06127 13.3136C0.897716 12.9188 0.813852 12.4954 0.8145 12.068C0.813847 11.6405 0.897707 11.2172 1.06126 10.8222C1.22481 10.4273 1.46483 10.0686 1.7675 9.76675C2.06934 9.46408 2.42805 9.22406 2.82298 9.06051C3.21792 8.89696 3.64129 8.8131 4.06875 8.81375C4.82914 8.81219 5.5658 9.07842 6.1495 9.56575C5.5906 10.28 5.28758 11.1611 5.289 12.068C5.289 13.0115 5.6105 13.88 6.1495 14.5702C5.56574 15.0575 4.8291 15.3236 4.06875 15.322ZM9.3565 15.322C8.59607 15.3236 7.85934 15.0575 7.2755 14.5702C7.83455 13.856 8.13765 12.9748 8.13625 12.0677C8.13754 11.1609 7.83444 10.2799 7.2755 9.56575C7.85927 9.07836 8.59602 8.81213 9.3565 8.81375C10.1171 8.81207 10.8539 9.07831 11.4377 9.56575C10.8788 10.2799 10.5757 11.1611 10.577 12.068C10.5757 12.9749 10.8788 13.8561 11.4377 14.5702C10.854 15.0577 10.1172 15.3239 9.35675 15.3223L9.3565 15.322ZM14.6445 15.322C13.8842 15.3235 13.1475 15.0574 12.5638 14.5702C13.1228 13.856 13.4259 12.9748 13.4245 12.0677C13.4258 11.1609 13.1227 10.2799 12.5638 9.56575C13.1475 9.07851 13.8841 8.81229 14.6445 8.81375C15.4051 8.81207 16.1419 9.07831 16.7257 9.56575C16.1668 10.28 15.8638 11.1611 15.8652 12.068C15.8652 13.0115 16.1867 13.88 16.7257 14.5702C16.142 15.0577 15.4052 15.3239 14.6447 15.3223L14.6445 15.322ZM22.2337 14.3687C21.9319 14.6714 21.5732 14.9115 21.1783 15.075C20.7833 15.2386 20.36 15.3224 19.9325 15.3217C19.1721 15.3233 18.4354 15.0571 17.8517 14.5697C18.4106 13.8555 18.7135 12.9744 18.712 12.0675C18.712 11.124 18.3907 10.2555 17.852 9.56525C18.4357 9.07801 19.1722 8.81179 19.9325 8.81325C20.36 8.81254 20.7834 8.89638 21.1783 9.05993C21.5732 9.22349 21.9319 9.46353 22.2337 9.76625C22.5365 10.0681 22.7765 10.4268 22.9401 10.8217C23.1036 11.2166 23.1875 11.64 23.1868 12.0675C23.1874 12.495 23.1036 12.9183 22.94 13.3133C22.7765 13.7082 22.5364 14.0669 22.2337 14.3687Z" fill="white"/>
</svg>
