<svg width="24" height="10" viewBox="0 0 24 9.04" fill="none" xmlns="http://www.w3.org/2000/svg">
<path d="M12.001 9.03975C14.0983 8.71125 18.2708 7.86975 20.096 7.43725C21.4665 7.111 21.5392 6.686 21.6917 5.988C21.7442 5.7465 22.2075 3.25025 22.3843 2.28125L24 0H0L1.6155 2.281C1.7925 3.24975 2.2555 5.746 2.308 5.9875C2.4605 6.6855 2.533 7.1105 3.904 7.4365C5.72925 7.869 9.90275 8.71075 12 9.039H12.0013L12.001 9.03975ZM21.4513 2.248C21.1325 4.14 20.9357 5.35625 20.8542 5.7805C20.7122 6.518 20.6873 6.83625 19.9255 7.04175C18.41 7.40125 14.0187 8.30325 12.0005 8.6075C9.98225 8.30325 5.59 7.401 4.0745 7.04175C3.31275 6.83625 3.28775 6.51825 3.14575 5.7805C3.06425 5.35625 2.868 4.14 2.5485 2.248L1.27575 0.429H22.724L21.4513 2.248Z" fill="white"/>
<path d="M20.449 6.16949C20.4825 6.02949 20.5832 5.48074 20.5832 5.48074C17.1757 5.48074 12.1195 5.47974 12.1195 5.47974V6.16974H20.4487M20.7827 4.32149H12.12V5.25024H12.3565V4.55724H18.7165C18.687 4.78499 18.6547 5.01749 18.6205 5.24974H20.6262C20.665 5.00774 20.7202 4.69649 20.7832 4.32124L20.7827 4.32149ZM15.7172 4.10474V2.70424H21.0535C20.967 3.23499 20.885 3.70424 20.8185 4.10474H15.7167H15.7172ZM15.7172 2.03149V1.53574H21.5622C21.443 1.70249 21.336 1.85824 21.2155 2.03149H15.7167H15.7172ZM12.1195 3.65074V3.15474H15.487V3.65074H12.1195ZM12.1195 2.49099V1.09599H15.487V2.49099H12.1195ZM18.795 6.98724C16.5182 7.48474 14.1042 7.94149 12.1195 8.26174V6.37324H20.387C20.3085 6.53299 20.243 6.61174 19.8715 6.72374C19.512 6.82049 19.3675 6.85399 18.7947 6.98749L18.795 6.98724ZM18.2492 6.60974H12.356V7.95924C13.662 7.74674 14.685 7.55999 16.4442 7.21849C17.0232 7.10199 17.2662 7.03599 17.6257 6.93999C17.9335 6.85799 18.1395 6.73524 18.2492 6.60924V6.60974ZM4.12449 6.72349C3.71224 6.59274 3.71699 6.53474 3.61424 6.37249H3.61499C5.50299 6.37199 6.42274 6.37199 8.31099 6.37199V6.86799H4.75699C4.54392 6.83022 4.33283 6.782 4.12449 6.72349ZM8.54099 7.65324C10.0375 7.94824 10.8457 8.10249 11.881 8.26174V5.93749H8.54099V7.65324ZM11.881 4.76574V5.26174H8.54099V4.76574H11.881ZM3.45799 5.71049C3.40674 5.47849 3.33499 5.00874 3.21774 4.30774H8.31074V5.70824C6.35824 5.70824 5.41074 5.71049 3.45824 5.71049H3.45799ZM3.02499 3.15549H11.8795V4.08424H11.6432V3.39149H5.16849C5.19049 3.62249 5.21549 3.85324 5.24274 4.08399H3.18024C3.13074 3.80099 3.08374 3.49399 3.02499 3.15549ZM2.87299 2.24824H11.8795V2.93974H2.98949L2.87299 2.24824ZM2.13324 1.09624H11.8795V2.02474H11.6432V1.33224H4.48924C4.62749 1.56374 4.75374 1.79549 4.88849 2.02474H2.78324C2.69524 1.90224 2.42674 1.51499 2.13324 1.09624Z" fill="white"/>
</svg>
