<svg preserveAspectRatio="none" width="100%" height="100%" overflow="visible" style="display: block;" viewBox="0 0 24 24" fill="none" xmlns="http://www.w3.org/2000/svg">
<g id="Ferrari">
<path id="Vector" d="M4.75 3.835V4.21225L12.125 2.96L19.5 4.21325V3.83525L12.125 2.4715L4.75 3.835Z" fill="var(--fill-0, white)"/>
<path id="Vector_2" d="M19.5 4.20975L12.125 2.9575L4.75 4.21L4.76825 5.445C4.76825 5.445 8.474 3.839 12.125 3.839C15.776 3.839 19.4818 5.445 19.4818 5.445L19.5 4.20975Z" fill="var(--fill-0, black)"/>
<path id="Vector_3" d="M12.125 3.789C7.5175 3.789 4.76825 5.417 4.76825 5.417L4.824 9.1225C4.824 10.823 5.38125 18.0605 12.125 22C18.8725 18.0595 19.426 10.8255 19.426 9.1225L19.4818 5.417C19.4818 5.417 16.7337 3.79 12.125 3.79" fill="var(--fill-0, black)"/>
<path id="Vector_4" d="M19.205 5.6825C19.205 5.6825 16.8077 4.1575 12.125 4.1575C7.44223 4.1575 5.04498 5.6825 5.04498 5.6825L5.11898 9.12125C5.11898 10.469 5.37748 17.6873 12.125 21.6038C18.8725 17.6873 19.131 10.4678 19.131 9.12125L19.205 5.68125V5.6825Z" fill="var(--fill-0, white)"/>
<path id="Vector_5" d="M11.9588 4.7285C11.9588 4.7285 11.9513 4.8085 11.932 4.8545C11.915 4.897 11.8678 4.92725 11.8713 4.95525C11.875 4.983 11.9053 5.017 11.9513 5.04125C11.9975 5.0655 12.0158 5.08375 12.063 5.09575C12.1068 5.10675 12.1615 5.1395 12.1785 5.10175C12.1943 5.0655 12.17 5.01925 12.1433 4.97575C12.097 4.90075 12.074 4.8825 12.006 4.777C11.9915 4.75525 11.9793 4.731 11.9585 4.72725" fill="var(--fill-0, black)"/>
<path id="Vector_6" d="M11.6127 12.915C11.6177 12.9017 11.7267 12.971 11.7827 13.0037C11.9027 13.0752 11.9562 13.1175 12.062 13.1962C12.1445 13.2595 12.1857 13.2922 12.2695 13.3647C12.3725 13.4532 12.4285 13.5298 12.4552 13.5115C12.4952 13.463 12.3895 13.3225 12.2962 13.2472C12.2137 13.1817 12.1278 13.1206 12.0387 13.0642C11.9452 13.0025 11.937 12.988 11.7972 12.8945C11.648 12.794 11.518 12.6678 11.518 12.6678L11.3712 12.5528L11.143 12.36L10.8892 12.126L10.6975 11.9128C10.6975 11.9128 10.5482 11.731 10.525 11.6958C10.501 11.6608 10.4317 11.5478 10.3735 11.4523C10.3228 11.3732 10.269 11.2963 10.212 11.2218C10.1575 11.1565 10.0337 11.183 9.89047 11.0983C9.71547 10.9953 9.67297 10.9008 9.67297 10.9008C9.67297 10.9008 9.66572 10.886 9.65972 10.8788C9.65372 10.8715 9.63922 10.8618 9.63922 10.8618L9.54822 10.7975L9.49572 10.7625C9.49572 10.7625 9.45572 10.7298 9.40597 10.708C9.35113 10.6809 9.29734 10.6517 9.24472 10.6205L9.04447 10.4933L8.93997 10.4098C8.91322 10.389 8.86347 10.3613 8.86347 10.3613C8.86347 10.3613 8.83197 10.3455 8.82222 10.3443C8.80518 10.3431 8.78817 10.3414 8.77122 10.3393C8.77122 10.3393 8.73247 10.3298 8.69372 10.3758C8.65472 10.4218 8.66322 10.3975 8.72747 10.657C8.75297 10.76 8.75072 11.12 8.77747 11.2303C8.81247 11.3723 8.91097 11.554 8.92172 11.5758C8.93172 11.5975 8.93872 11.6765 8.93872 11.6765C8.93872 11.6765 8.93522 11.7405 8.94122 11.7805C8.97147 11.9673 9.24472 11.8448 9.30522 12.0995C9.36472 12.3515 9.27022 12.6035 9.27022 12.6035C9.27022 12.6035 9.21072 12.7285 9.12822 12.748C9.04572 12.7673 8.91697 12.5843 8.82472 12.4365C8.73372 12.291 8.65847 12.0995 8.63397 12.039C8.60972 11.9783 8.59772 11.9648 8.56972 11.92C8.52847 11.8545 8.49572 11.8668 8.44972 11.7635C8.40347 11.6605 8.44472 11.6183 8.42297 11.5285C8.41072 11.4775 8.39972 11.4728 8.38547 11.4025C8.36947 11.331 8.34997 11.1043 8.34997 11.1043L8.32097 10.8933C8.32097 10.8933 8.31122 10.7975 8.29797 10.737C8.25172 10.526 8.23597 10.3225 8.23597 10.3225L8.22747 10.2388L8.22397 10.1528C8.22397 10.1528 8.22147 10.1103 8.23122 10.0678C8.24197 10.0253 8.26272 9.989 8.26272 9.989C8.26272 9.989 8.30522 9.9175 8.31247 9.9005C8.31972 9.88375 8.40722 9.783 8.40722 9.783C8.40722 9.783 8.45222 9.7455 8.52722 9.6995C8.60122 9.65325 8.66922 9.657 8.66922 9.657C8.66922 9.657 8.68872 9.6545 8.82097 9.6715C8.95347 9.6885 9.22522 9.76 9.29322 9.77825C9.36122 9.79625 9.44122 9.82425 9.49472 9.85325C9.64522 9.93575 9.69122 9.90075 9.57122 9.80725C9.48972 9.74425 9.46797 9.71625 9.40247 9.65575C9.34772 9.606 9.30422 9.57225 9.26272 9.52475C9.22147 9.4775 9.10372 9.3055 9.10372 9.3055L9.03122 9.1975C9.03122 9.1975 8.99097 9.154 8.98497 9.15025C8.97872 9.14675 8.95822 9.131 8.95822 9.131C8.95822 9.131 8.90972 9.1335 8.85997 9.1235C8.80997 9.114 8.78572 9.18425 8.78572 9.18425C8.78572 9.18425 8.67647 9.38675 8.56747 9.51025C8.38897 9.7115 8.26022 9.8485 8.19472 9.95525C8.10247 10.1043 8.12297 10.2668 8.07572 10.3418C8.04797 10.3868 8.03322 10.3928 8.01747 10.4318C7.97147 10.548 8.13997 10.6123 8.10122 10.7418C8.04047 10.9468 7.55872 11.1503 7.49422 11.1163C7.42872 11.0813 7.48222 10.8038 7.50522 10.7138C7.52822 10.6243 7.59522 10.491 7.60122 10.4848C7.61408 10.4651 7.62347 10.4433 7.62897 10.4205C7.63397 10.394 7.63647 10.3345 7.63897 10.3005C7.64247 10.2668 7.65572 10.2145 7.65572 10.2145C7.65572 10.2145 7.65822 10.2038 7.70072 10.1103C7.74322 10.0183 7.89972 9.8025 8.01272 9.59625C8.08672 9.46175 8.11697 9.3805 8.19097 9.24625C8.25897 9.1225 8.37547 8.9345 8.37547 8.9345C8.37547 8.9345 8.42547 8.83875 8.44847 8.8025C8.47147 8.766 8.52122 8.697 8.56747 8.629C8.61347 8.56 8.62572 8.509 8.68622 8.45325C8.73722 8.406 8.77122 8.38175 8.83672 8.36C8.93522 8.3285 9.00172 8.3455 9.10147 8.37325C9.20572 8.4025 9.27622 8.44975 9.34397 8.5055C9.41222 8.56125 9.46197 8.62425 9.46197 8.62425L9.49447 8.67275L9.51522 8.68475L9.57847 8.72475L9.72297 8.8205L10.0835 9.0655C10.1015 9.0775 10.1622 9.1285 10.1757 9.13225C10.1877 9.13575 10.2787 9.0375 10.4572 8.914C10.6647 8.771 10.7375 8.78175 10.8055 8.74425C10.8735 8.70675 10.9015 8.6765 10.955 8.623C11.035 8.543 11.035 8.5005 11.126 8.388C11.217 8.27625 11.3035 8.21325 11.3035 8.21325C11.3035 8.21325 11.3155 8.20125 11.4792 8.017C11.6417 7.83275 11.7147 7.6945 11.7147 7.6945L11.8047 7.51525C11.8047 7.51525 11.9345 7.23775 11.9757 7.12725C12.017 7.017 12.017 6.9805 12.017 6.9805C12.017 6.9805 12.023 6.9515 11.9915 6.89575C11.96 6.84 11.926 6.8655 11.864 6.8775C11.745 6.903 11.6735 6.8715 11.5532 6.851C11.4427 6.8315 11.3857 6.8 11.2752 6.7805C11.1637 6.76125 11.098 6.74425 10.9865 6.75525C10.9634 6.75775 10.9406 6.76261 10.9185 6.76975C10.8555 6.79025 10.8385 6.7965 10.791 6.823C10.7365 6.8485 10.701 6.857 10.6405 6.858C10.5992 6.858 10.5737 6.8605 10.535 6.84475C10.5119 6.8373 10.4908 6.82493 10.473 6.8085C10.4617 6.79864 10.4519 6.78719 10.444 6.7745C10.444 6.7625 10.439 6.76375 10.45 6.74425C10.461 6.72475 10.4755 6.7225 10.4755 6.7225L10.5265 6.71025C10.5265 6.71025 10.598 6.691 10.6052 6.68975C10.6115 6.6885 10.6805 6.6655 10.711 6.65575C10.7412 6.646 10.7752 6.629 10.7752 6.629C10.7752 6.629 10.7935 6.6 10.7862 6.583C10.7777 6.5635 10.7362 6.5625 10.7362 6.5625C10.7362 6.5625 10.6795 6.583 10.672 6.58425C10.666 6.5855 10.575 6.6145 10.575 6.6145C10.575 6.6145 10.5035 6.63025 10.4462 6.64375C10.3905 6.657 10.3105 6.663 10.3105 6.663L10.286 6.657C10.286 6.657 10.2582 6.63875 10.2545 6.6205L10.2447 6.571C10.2327 6.5005 10.2192 6.457 10.2352 6.38675C10.2425 6.3575 10.2485 6.34175 10.2617 6.314C10.2711 6.29435 10.2817 6.27531 10.2935 6.257L10.3385 6.1855L10.422 6.063C10.4512 6.034 10.4695 6.0195 10.5045 6C10.558 5.96975 10.5882 5.96125 10.655 5.954C10.7207 5.9465 10.7292 5.948 10.8215 5.92725C10.9135 5.90675 10.9805 5.87025 10.9805 5.87025C10.9805 5.87025 11.2012 5.789 11.3372 5.7225C11.4792 5.65325 11.5412 5.5795 11.688 5.52125C11.75 5.497 11.7852 5.48625 11.8495 5.469C11.8532 5.46715 11.8565 5.46444 11.859 5.4611C11.8615 5.45776 11.8632 5.45387 11.864 5.44975C11.87 5.42675 11.8337 5.41575 11.8095 5.41825C11.7875 5.42075 11.7377 5.44375 11.7257 5.41825C11.7157 5.39875 11.7717 5.38675 11.7717 5.38675C11.7717 5.38675 11.7972 5.3745 11.7985 5.36C11.7985 5.33825 11.761 5.3525 11.7437 5.35025C11.6577 5.3405 11.6515 5.32475 11.5922 5.31025C11.5217 5.29325 11.4842 5.2715 11.4112 5.26775C11.347 5.26525 11.2862 5.27875 11.2462 5.2885C11.2062 5.29825 11.205 5.2595 11.2207 5.25225C11.3335 5.2 11.336 5.19525 11.415 5.1915C11.4587 5.19025 11.5192 5.199 11.5255 5.2025C11.5315 5.206 11.6187 5.20125 11.642 5.1795C11.6637 5.1575 11.5702 5.15875 11.5265 5.1405C11.4852 5.12475 11.4235 5.12 11.4247 5.09325C11.4257 5.06675 11.4562 5.08125 11.478 5.07525C11.5047 5.069 11.5205 5.069 11.5485 5.06525C11.5982 5.05825 11.603 5.0545 11.676 5.04725C11.75 5.04125 11.8555 5.0715 11.8555 5.0715C11.8555 5.0715 11.966 5.12125 12.0205 5.1465C12.0752 5.17225 12.1407 5.1855 12.1407 5.1855C12.1407 5.1855 12.2172 5.19625 12.2767 5.16C12.3362 5.1235 12.3035 5.0995 12.2817 5.06675C12.261 5.03525 12.2355 4.99025 12.2742 4.903C12.3082 4.828 12.3252 4.7405 12.335 4.73225C12.346 4.72225 12.3932 4.789 12.4235 4.81825C12.5315 4.91875 12.6747 4.96825 12.8095 5.18075C12.8205 5.1975 12.8702 5.17075 13.028 5.19525C13.1857 5.2195 13.3205 5.38675 13.3557 5.42675C13.3907 5.46675 13.437 5.4655 13.437 5.4655L13.5125 5.47525L13.7855 5.48C13.7855 5.48 13.9092 5.45825 13.981 5.485C14.0307 5.503 14.1982 5.6145 14.1217 5.657C14.0682 5.68725 14.0185 5.622 13.97 5.61825C13.913 5.6145 13.8887 5.6255 13.8375 5.6375C13.732 5.66425 13.504 5.73325 13.5865 5.76125C13.5937 5.76375 13.6045 5.76625 13.6045 5.76625L13.646 5.772C13.646 5.772 13.7455 5.79525 13.806 5.8195C13.8972 5.85575 13.9397 5.89575 14.0245 5.94425C14.072 5.972 14.0937 6 14.146 6.01575C14.1945 6.03025 14.2247 6.01575 14.2745 6.02425C14.339 6.03625 14.3755 6.0485 14.4347 6.0775C14.5222 6.12 14.555 6.171 14.634 6.228C14.674 6.25575 14.7065 6.2605 14.7357 6.2995C14.7432 6.308 14.748 6.3115 14.7517 6.3225C14.7625 6.3575 14.6935 6.337 14.6567 6.331C14.6167 6.32475 14.6 6.30425 14.5635 6.28725C14.509 6.26175 14.4822 6.23275 14.4227 6.223C14.379 6.2145 14.3535 6.22175 14.3085 6.223C14.266 6.2255 14.2417 6.2315 14.1992 6.23275C14.1267 6.23275 14.0842 6.22675 14.0125 6.21225C13.9312 6.19525 13.8925 6.1635 13.811 6.14675C13.721 6.1285 13.5597 6.051 13.5755 6.12725C13.583 6.16475 13.669 6.19625 13.669 6.19625C13.669 6.19625 13.726 6.228 13.7817 6.25225C13.8377 6.27625 13.868 6.31275 13.868 6.31275L13.9067 6.34175C13.9067 6.34175 13.9467 6.39625 13.9977 6.45675C14.0487 6.5175 14.1387 6.51625 14.1387 6.51625C14.1387 6.51625 14.1932 6.51625 14.3097 6.5405C14.4262 6.56475 14.5465 6.6365 14.5465 6.6365C14.5465 6.6365 14.6375 6.69825 14.691 6.76125C14.7432 6.823 14.7127 6.85575 14.7067 6.86175C14.7007 6.86775 14.7017 6.8655 14.6957 6.86775C14.6897 6.8715 14.6242 6.789 14.6242 6.789L14.578 6.749C14.578 6.749 14.532 6.7175 14.4725 6.69825C14.413 6.67875 14.3935 6.69225 14.3935 6.69225C14.3935 6.69225 14.2672 6.72725 14.158 6.72375C14.0487 6.72 13.9917 6.6775 13.9917 6.6775L13.9227 6.6315C13.9227 6.6315 13.8182 6.5345 13.8157 6.5805C13.8132 6.61225 13.862 6.646 13.862 6.646C13.862 6.646 13.896 6.68 13.9177 6.7005C13.959 6.74175 13.976 6.7625 14.0245 6.80475C14.073 6.8485 14.1035 6.8485 14.1035 6.8485L14.1385 6.857C14.1485 6.85825 14.1652 6.863 14.1652 6.863C14.1652 6.863 14.1812 6.869 14.2565 6.8995C14.3315 6.9295 14.4117 6.99525 14.4117 6.99525C14.4117 6.99525 14.4202 7.00125 14.4312 7.00375C14.4422 7.00475 14.4652 7.01575 14.4712 7.01825C14.4772 7.0195 14.4967 7.0195 14.5405 7.02675C14.5842 7.03275 14.5672 7.0605 14.5672 7.0605L14.5587 7.0715L14.5235 7.09575C14.5235 7.09575 14.4772 7.109 14.4445 7.11025C14.4183 7.10926 14.3924 7.10394 14.368 7.0945L14.271 7.05825C14.271 7.05825 14.1737 7.03275 14.1532 7.029C14.1119 7.02148 14.0706 7.0134 14.0295 7.00475C14.0054 6.998 13.9818 6.98957 13.959 6.9795C13.948 6.97325 13.925 6.9685 13.8727 6.943C13.8207 6.9175 13.7987 6.88725 13.7332 6.86675C13.6677 6.846 13.6277 6.84125 13.578 6.8765C13.493 6.9345 13.7065 6.94425 13.8135 6.9975C13.97 7.075 14.0572 7.13225 14.095 7.2145C14.1325 7.29825 14.1702 7.3285 14.1702 7.3285C14.1702 7.3285 14.2807 7.38425 14.3302 7.4425C14.3572 7.474 14.3607 7.4995 14.3887 7.531C14.4495 7.601 14.566 7.5975 14.5902 7.65825C14.612 7.714 14.4955 7.68975 14.4335 7.68375C14.3245 7.67275 14.2977 7.57325 14.1945 7.532C14.1362 7.509 14.0997 7.509 14.0402 7.4885C13.9322 7.4535 13.8827 7.406 13.7745 7.3735C13.7102 7.354 13.5912 7.26675 13.6045 7.3335C13.6082 7.349 13.6167 7.3625 13.6215 7.372C13.6265 7.382 13.6532 7.417 13.6532 7.417C13.6532 7.417 13.6895 7.4655 13.7065 7.4775C13.7222 7.491 13.7927 7.543 13.8922 7.5975C13.9917 7.652 14.078 7.7565 14.078 7.7565C14.078 7.7565 14.1072 7.799 14.1205 7.82775C14.135 7.8605 14.1255 7.8715 14.1472 7.91775C14.1702 7.96375 14.1797 7.97225 14.209 8.00125C14.282 8.0715 14.3572 8.057 14.4507 8.09575C14.4762 8.1055 14.4772 8.11025 14.5052 8.1395C14.532 8.1685 14.5002 8.1805 14.5002 8.1805C14.5002 8.1805 14.3972 8.20725 14.3302 8.20125C14.2442 8.19375 14.2052 8.16725 14.1202 8.12625C14.0355 8.08475 13.9905 8.00975 13.9832 8.00475C13.976 8 13.9542 7.97825 13.9382 7.966C13.9225 7.95525 13.8812 7.94675 13.8437 7.93575C13.8062 7.926 13.7842 7.92375 13.7477 7.914C13.6967 7.8995 13.6435 7.8775 13.6202 7.869C13.5962 7.8605 13.5415 7.851 13.5002 7.87525C13.4202 7.9225 13.624 7.95525 13.6885 8.023C13.721 8.057 13.7345 8.08125 13.7647 8.1175C13.789 8.14425 13.7987 8.165 13.8267 8.18675C13.8472 8.20125 13.8825 8.21675 13.8825 8.21675C13.8825 8.21675 13.9325 8.23875 14.004 8.27875C14.0755 8.31875 14.1605 8.43025 14.1605 8.43025L14.2115 8.50775L14.2417 8.55275L14.2502 8.57325L14.2612 8.59875C14.2612 8.59875 14.2977 8.64725 14.3255 8.663C14.3522 8.67875 14.3475 8.69325 14.3475 8.69325C14.3475 8.69325 14.3437 8.70325 14.3255 8.714C14.3062 8.72475 14.2965 8.71525 14.2697 8.70775C14.243 8.6995 14.2247 8.674 14.2005 8.6545C14.1762 8.63525 14.1507 8.58675 14.106 8.56C14.067 8.537 14.016 8.5285 13.9967 8.52125C13.9772 8.51525 13.93 8.48475 13.9105 8.47625L13.8412 8.44625C13.8412 8.44625 13.7455 8.3915 13.692 8.377C13.6397 8.3625 13.6725 8.394 13.6725 8.394C13.6725 8.394 13.72 8.46775 13.766 8.49825C13.8255 8.537 13.908 8.572 13.8812 8.6035C13.8632 8.62425 13.8387 8.617 13.811 8.6135C13.7672 8.6085 13.7137 8.55525 13.7137 8.55525C13.7137 8.55525 13.692 8.5405 13.5925 8.509C13.493 8.4775 13.5305 8.531 13.5525 8.56C13.5742 8.589 13.6045 8.605 13.6045 8.605L13.6712 8.635L13.7017 8.645C13.7017 8.645 13.7285 8.64975 13.8182 8.67025C13.9082 8.691 13.9577 8.7345 13.9577 8.7345C13.9577 8.7345 14.0062 8.7795 14.073 8.829C14.14 8.879 14.208 8.891 14.2442 8.89575C14.2807 8.90075 14.2792 8.926 14.2792 8.926C14.2792 8.926 14.2842 8.95025 14.2832 8.9575C14.282 8.966 14.2732 8.97225 14.265 8.97225C14.2565 8.97225 14.254 8.97575 14.2442 8.9805C14.2345 8.9855 14.1967 8.9915 14.1967 8.9915C14.1967 8.9915 14.0962 8.988 14.0172 8.96975C13.9385 8.95025 13.8705 8.89575 13.8632 8.89325C13.8215 8.87009 13.7781 8.85028 13.7332 8.834C13.6835 8.81825 13.6057 8.82425 13.5972 8.828C13.5887 8.8315 13.5622 8.8365 13.516 8.8485C13.47 8.86175 13.527 8.87875 13.527 8.87875L13.561 8.8825L13.641 8.8885C13.641 8.8885 13.7222 8.89825 13.7927 8.9235C13.8632 8.949 13.908 9 13.9542 9.046C14.0002 9.092 14.0512 9.1225 14.0512 9.1225L14.0877 9.14675L14.1072 9.16125L14.112 9.1745C14.112 9.1745 14.1107 9.1805 14.107 9.189C14.1035 9.1975 14.0925 9.20375 14.0925 9.20375C14.0925 9.20375 14.0742 9.2 14.067 9.2C14.0597 9.2 14.0065 9.17225 13.9675 9.155C13.9275 9.137 13.9067 9.12125 13.8632 9.11025C13.8314 9.10274 13.7987 9.09946 13.766 9.1005C13.7146 9.10969 13.6628 9.1162 13.6107 9.12C13.5487 9.125 13.493 9.126 13.419 9.1165C13.3132 9.103 13.1725 9.0205 13.1555 9.04375C13.119 9.09225 13.2307 9.10675 13.2842 9.137C13.3582 9.1795 13.4867 9.21825 13.4867 9.21825C13.4867 9.21825 13.5802 9.23875 13.6362 9.26425C13.7562 9.32 13.7927 9.4025 13.8887 9.48975C13.942 9.53825 13.9845 9.55875 14.0562 9.56975C14.118 9.57825 14.1167 9.571 14.2137 9.55275C14.3112 9.5345 14.3717 9.44125 14.3997 9.474C14.4057 9.48125 14.4032 9.48725 14.4007 9.49575C14.3997 9.5055 14.3912 9.5225 14.3912 9.5225C14.3912 9.5225 14.3802 9.53825 14.362 9.55625C14.345 9.57325 14.277 9.611 14.242 9.6255C14.2067 9.64 14.1205 9.66425 14.0112 9.6605C13.902 9.657 13.7502 9.5745 13.7502 9.5745L13.6397 9.5285C13.6397 9.5285 13.5887 9.50425 13.5547 9.49225C13.4637 9.45825 13.4055 9.4605 13.3122 9.43625C13.2537 9.4205 13.2162 9.40475 13.1627 9.39375C13.1105 9.383 13.1397 9.40375 13.1457 9.412C13.1712 9.44475 13.204 9.45575 13.2452 9.4765C13.3012 9.503 13.34 9.49825 13.397 9.52125C13.4602 9.54675 13.516 9.583 13.55 9.60625C13.585 9.629 13.6107 9.65325 13.6447 9.68975L13.7612 9.789C13.7612 9.789 13.788 9.811 13.7915 9.8205C13.7952 9.8305 13.8072 9.8545 13.8012 9.89225C13.7952 9.931 13.7625 9.903 13.7625 9.903L13.732 9.8835L13.7017 9.8545L13.6517 9.8145C13.6517 9.8145 13.6107 9.77575 13.5392 9.7395C13.4675 9.703 13.38 9.69325 13.38 9.69325C13.38 9.69325 13.3035 9.6825 13.306 9.70675C13.3097 9.731 13.3267 9.73225 13.3872 9.748C13.448 9.76375 13.488 9.794 13.488 9.794C13.488 9.794 13.55 9.84 13.595 9.891C13.64 9.94175 13.652 9.9915 13.652 9.9915C13.652 9.9915 13.6737 10.0328 13.732 10.0898C13.789 10.1455 13.8195 10.126 13.817 10.154C13.8135 10.1805 13.788 10.1855 13.788 10.1855C13.788 10.1855 13.7732 10.1843 13.7672 10.1843C13.7612 10.1843 13.7465 10.1758 13.7307 10.1698C13.715 10.1635 13.6542 10.1213 13.6542 10.1213C13.6542 10.1213 13.5597 10.0448 13.5487 10.0363L13.448 9.96125C13.448 9.96125 13.3957 9.92725 13.357 9.908C13.3188 9.8894 13.2794 9.8732 13.2392 9.8595C13.21 9.8495 13.158 9.846 13.158 9.846C13.158 9.846 13.0935 9.8365 13.056 9.82175C12.9952 9.79875 12.9235 9.73325 12.9165 9.72975C12.908 9.726 12.8507 9.708 12.84 9.709C12.829 9.71025 12.8035 9.81825 12.7975 9.88C12.772 10.1395 12.84 10.3115 12.948 10.549C13.1032 10.8945 13.5342 11.3248 13.5342 11.3248C13.5342 11.3248 13.6422 11.3868 13.6885 11.423C13.817 11.5235 14.0307 11.6668 14.22 11.8545C14.3815 12.0158 14.5975 12.303 14.5975 12.303C14.5975 12.303 14.7212 12.4765 14.7795 12.5988C14.85 12.749 14.907 12.9782 14.907 12.9782C14.907 12.9782 14.912 13.0182 14.9167 13.0267C14.9217 13.0352 14.9325 13.0448 14.9397 13.0448L15.015 13.0472C15.0235 13.0472 15.1085 13.0412 15.1642 13.0267C15.2215 13.012 15.355 12.9518 15.4422 12.9055C15.531 12.8595 15.6365 12.7697 15.6365 12.7697C15.6365 12.7697 15.656 12.7528 15.759 12.6388C15.8622 12.5238 15.929 12.3515 15.9545 12.2873C15.9787 12.2218 15.9995 12.0983 16.0152 11.886C16.031 11.674 16.0017 11.4485 16.0017 11.4485C16.0017 11.4485 15.963 11.1358 15.94 11.029C15.9167 10.9225 15.86 10.749 15.86 10.749C15.86 10.749 15.821 10.594 15.8075 10.4958C15.7991 10.4107 15.7942 10.3254 15.793 10.24C15.793 10.24 15.793 10.1418 15.8247 9.9625C15.8562 9.783 15.9667 9.6025 15.9667 9.6025C15.9667 9.6025 15.997 9.54175 16.116 9.4C16.2372 9.25575 16.276 9.2315 16.3952 9.1455C16.4897 9.0775 16.6135 8.96725 16.6537 8.99275C16.6972 9.0205 16.61 9.0765 16.5807 9.10525C16.5067 9.1795 16.366 9.31025 16.2532 9.50675C16.1547 9.6775 16.1182 9.79025 16.094 9.9005C16.0697 10.0123 16.0795 10.1333 16.0832 10.1758C16.0867 10.217 16.1097 10.2025 16.1097 10.2025C16.1097 10.2025 16.3502 10.0098 16.48 9.86425C16.621 9.70675 16.7472 9.4255 16.7957 9.423C16.8282 9.42175 16.8442 9.497 16.837 9.531C16.8055 9.67625 16.7957 9.6945 16.7482 9.7915C16.6937 9.903 16.644 9.95275 16.5687 10.0545C16.4887 10.1625 16.451 10.2035 16.3865 10.3455C16.2955 10.549 16.3477 10.7068 16.3477 10.7068C16.3477 10.7068 16.3587 10.8025 16.4025 10.8013C16.475 10.7988 16.633 10.5988 16.7362 10.4353C16.8127 10.3153 16.8405 10.177 16.8915 10.1043C16.9365 10.04 16.9765 10.2085 16.957 10.3093C16.934 10.4278 16.8757 10.5345 16.747 10.7018C16.621 10.8668 16.6245 11.0218 16.6245 11.0218C16.6245 11.0218 16.6112 11.0933 16.6002 11.2485C16.5905 11.4035 16.6342 11.6388 16.6342 11.6388C16.6342 11.6388 16.6742 11.8353 16.6817 11.9843C16.6887 12.1333 16.684 12.474 16.5442 12.7382C16.4885 12.8447 16.3695 12.9915 16.3695 12.9915C16.3695 12.9915 16.2785 13.086 16.202 13.1405C16.127 13.1953 15.946 13.28 15.946 13.28C15.946 13.28 15.821 13.3238 15.804 13.3275C15.7857 13.331 15.7747 13.3468 15.7747 13.3468C15.7747 13.3468 15.787 13.371 15.7907 13.3805C15.7955 13.3905 15.8307 13.4765 15.8307 13.4765C15.8307 13.4765 15.8682 13.599 15.883 13.6958C15.8975 13.7915 15.8805 13.8145 15.866 13.8883C15.8525 13.9588 15.821 13.926 15.8135 14.0655C15.8065 14.188 15.8635 14.2497 15.8525 14.388C15.8475 14.4485 15.7797 14.3128 15.747 14.2545C15.6765 14.1273 15.6935 13.9345 15.691 13.8872C15.6902 13.8323 15.6824 13.7777 15.668 13.7247C15.6498 13.6574 15.6189 13.594 15.577 13.5382C15.5405 13.4907 15.502 13.4632 15.4885 13.4677C15.475 13.4715 15.475 13.4983 15.4737 13.5103C15.4737 13.5225 15.4992 13.5685 15.5055 13.5782C15.5115 13.5877 15.5575 13.6728 15.5575 13.6728C15.5575 13.6728 15.5782 13.737 15.5855 13.8643C15.594 13.9903 15.5552 14.1468 15.5552 14.1468C15.5552 14.1468 15.5042 14.3225 15.4507 14.4268C15.3912 14.5405 15.2602 14.6958 15.2602 14.6958C15.2602 14.6958 15.1655 14.7818 15.0952 14.9235C15.0247 15.0655 15.0852 15.1272 15.0587 15.1442C15.032 15.1625 14.9762 15.063 14.9605 14.9952C14.947 14.9332 14.953 14.903 14.9785 14.8328C15.003 14.7648 15.06 14.6678 15.06 14.6678L15.145 14.5235C15.145 14.5235 15.2457 14.3285 15.2785 14.1877C15.31 14.0472 15.2747 13.891 15.2747 13.891C15.2747 13.891 15.2697 13.84 15.2347 13.841C15.1997 13.8425 15.174 13.874 15.1595 13.9115C15.1302 13.989 15.1717 13.9745 15.1267 14.1042C15.0915 14.206 15.0817 14.1927 15.0635 14.252C15.0417 14.3247 15.0295 14.3988 15.031 14.4438C15.032 14.4885 15.0077 14.4703 15.0077 14.4703C15.0077 14.4703 14.9652 14.3903 14.9652 14.2898C14.9652 14.2353 14.9677 14.2047 14.9737 14.1515C14.9835 14.0642 15.0187 13.931 15.0187 13.931C15.0187 13.931 15.0575 13.8 15.049 13.6788C15.0405 13.5588 14.998 13.537 14.998 13.537C14.998 13.537 14.9872 13.52 14.941 13.5235C14.895 13.5273 14.896 13.6097 14.896 13.6097C14.896 13.6097 14.8815 13.7285 14.8635 13.8022C14.8122 14.0072 14.7432 14.114 14.6217 14.286C14.5125 14.441 14.3632 14.5782 14.2892 14.6425C14.2152 14.7067 13.9867 14.874 13.9867 14.874L13.72 15.052C13.72 15.052 13.6142 15.1553 13.5645 15.2788C13.516 15.4025 13.5185 15.4983 13.5462 15.611C13.5742 15.7235 13.6155 15.777 13.6372 15.8073C13.6592 15.8388 13.7005 15.8947 13.7137 15.9587C13.7222 15.9987 13.7162 16.023 13.7187 16.0643C13.7212 16.0993 13.726 16.12 13.7247 16.1553C13.7247 16.2123 13.7345 16.2522 13.7017 16.2995C13.6775 16.3345 13.613 16.3647 13.613 16.3647C13.613 16.3647 13.5405 16.3963 13.498 16.423C13.0425 16.698 12.8812 16.8753 12.624 17.1805C12.5425 17.2775 12.602 17.2728 12.5145 17.388C12.4625 17.457 12.341 17.457 12.2962 17.5395C12.2355 17.652 12.4345 17.7638 12.2037 17.863C11.9077 17.9915 11.3967 17.8995 11.3857 17.8595C11.358 17.749 11.4852 17.622 11.5302 17.5732C11.7377 17.3455 11.9247 17.3408 11.9927 17.1528C12.0072 17.1128 12.0012 17.0787 12.1675 16.9565C12.284 16.8702 12.749 16.5212 12.9515 16.2885C13.0207 16.2085 13.0815 16.1553 13.1117 16.069C13.1208 16.045 13.1227 16.0188 13.1174 15.9937C13.112 15.9686 13.0996 15.9455 13.0815 15.9272L12.9977 15.7915L12.8375 15.5065C12.8375 15.5065 12.7707 15.3552 12.733 15.2677C12.6967 15.1805 12.6262 14.9443 12.6262 14.9443C12.6262 14.9443 12.5752 14.7333 12.5655 14.5953C12.5497 14.3468 12.5837 14.2037 12.6492 13.9625C12.7342 13.6497 12.926 13.5188 13.0025 13.211C13.0245 13.121 13.0292 12.9672 12.9845 12.9745C12.9407 12.982 12.937 13.1043 12.9042 13.1855C12.7817 13.4923 12.6177 13.6268 12.528 13.9443C12.4672 14.1588 12.443 14.2872 12.4442 14.5092C12.4442 14.6362 12.4392 14.6132 12.4732 14.834C12.4855 14.9165 12.5062 14.959 12.5305 15.039C12.5475 15.0945 12.5935 15.2013 12.5935 15.2013C12.5935 15.2013 12.6577 15.3417 12.6797 15.44C12.687 15.4725 12.6955 15.4923 12.693 15.526C12.6895 15.5843 12.6992 15.5975 12.6712 15.651C12.636 15.7163 12.6577 15.7553 12.545 15.7795C12.4455 15.8013 12.2415 15.7345 12.2415 15.7345C12.2415 15.7345 11.4027 15.48 10.8665 15.5527C10.7595 15.5672 10.7037 15.606 10.5967 15.6035C10.4997 15.6025 10.45 15.526 10.3527 15.5553C10.3322 15.5613 10.3262 15.5745 10.3092 15.5868C10.1672 15.686 10.2752 15.8498 9.90122 15.7638C9.67197 15.7115 9.39372 15.571 9.44247 15.4825C9.50672 15.365 9.59297 15.3468 9.77497 15.2725C9.96922 15.1925 10.2605 15.2157 10.3175 15.212C10.388 15.2072 10.4887 15.1575 10.6137 15.1565C10.8297 15.1527 10.8687 15.1783 10.8687 15.1783L11.2365 15.2107L11.9405 15.2207C11.9405 15.2207 12.0667 15.2108 12.1165 15.2013C12.1675 15.1915 12.2075 15.092 12.2342 15.0448C12.261 14.9975 12.2342 14.9285 12.2342 14.9285L12.2125 14.8958L12.1457 14.788L12.0217 14.5795L11.8847 14.3068C11.8847 14.3068 11.7947 14.1165 11.7475 13.9902C11.7 13.8667 11.6722 13.7963 11.6407 13.6678C11.608 13.5345 11.5872 13.4277 11.5837 13.3212C11.5775 13.1685 11.568 13.0485 11.6102 12.9237" fill="var(--fill-0, black)"/>
<path id="Vector_7" d="M16.1815 12.6617C16.3295 12.4717 16.343 12.2957 16.3525 12.0472C16.3588 11.8667 16.2908 11.588 16.2908 11.588L16.281 11.5673C16.281 11.5673 16.2543 11.5332 16.2385 11.5782C16.241 11.6182 16.246 11.6482 16.246 11.6482L16.2542 12.0072C16.2542 12.0072 16.2435 12.1878 16.1815 12.3748C16.0782 12.6885 15.8028 12.829 15.7615 12.9405C15.6935 13.1298 16.003 12.8897 16.1803 12.6605M14.629 13.2413C14.629 13.2413 14.5685 13.2583 14.5673 13.3188C14.5673 13.3783 14.5817 13.4302 14.5805 13.5017C14.5792 13.5927 14.4942 13.6992 14.549 13.7345C14.6425 13.794 14.7225 13.377 14.6945 13.3153C14.6667 13.2533 14.6387 13.2413 14.629 13.2413ZM13.584 16.1285C13.584 16.1285 13.567 16.12 13.533 16.132C13.499 16.1442 13.5015 16.1795 13.5015 16.1795C13.5015 16.1795 13.494 16.217 13.522 16.2205C13.5488 16.2243 13.5938 16.1587 13.5938 16.1505C13.5938 16.143 13.584 16.1285 13.584 16.1285ZM12.6007 16.8267C12.6007 16.8267 12.591 16.8363 12.5995 16.8435C12.608 16.851 12.6215 16.841 12.6215 16.841C12.6215 16.841 12.7915 16.709 12.8923 16.6157C12.9821 16.5285 13.0686 16.4379 13.1517 16.3442C13.1517 16.3442 13.1618 16.331 13.1508 16.32C13.1385 16.309 13.1093 16.326 13.0863 16.3382C13.0645 16.349 13.0522 16.3613 13.0365 16.3745C13.0207 16.3878 12.971 16.4387 12.971 16.4387L12.84 16.5662L12.7585 16.6425L12.6785 16.7188L12.6445 16.7575L12.6335 16.7757L12.6228 16.7915C12.6228 16.7915 12.6105 16.8037 12.6105 16.806C12.6105 16.8085 12.607 16.8135 12.607 16.817C12.607 16.8205 12.6045 16.8255 12.6045 16.8255M12.307 17.0182C12.307 17.0182 12.2887 17.0037 12.2595 17.0182C12.235 17.0334 12.2139 17.0536 12.1978 17.0775C12.1953 17.0825 12.1798 17.103 12.1905 17.1225C12.2015 17.1405 12.238 17.1125 12.244 17.1125C12.249 17.1125 12.2972 17.075 12.2972 17.075C12.2972 17.075 12.3253 17.0583 12.3083 17.0195M11.745 17.588C11.745 17.588 11.722 17.543 11.6892 17.5613C11.6577 17.5795 11.6407 17.5855 11.6117 17.6255C11.6067 17.6327 11.5753 17.6728 11.5693 17.6825C11.563 17.6933 11.5327 17.7515 11.5957 17.755C11.7037 17.7625 11.6332 17.6923 11.671 17.6655C11.7015 17.6435 11.7573 17.6498 11.7585 17.628C11.7579 17.6137 11.7532 17.5998 11.745 17.588ZM9.82 15.3175C9.82 15.3175 9.7545 15.3332 9.7495 15.3562C9.74475 15.3795 9.787 15.4025 9.7945 15.4025C9.802 15.4038 9.8165 15.4205 9.86 15.3915C9.90375 15.3625 9.90125 15.337 9.90125 15.337C9.90125 15.337 9.92675 15.3077 9.82 15.3165M10.8798 15.2825C10.8798 15.2825 10.8797 15.2583 10.8322 15.2618C10.7862 15.2643 10.7753 15.2727 10.774 15.28C10.774 15.2875 10.7765 15.2995 10.819 15.3018C10.8615 15.3055 10.8785 15.3018 10.8798 15.2825ZM11.88 15.3115C11.796 15.3115 11.8228 15.314 11.7705 15.3165C11.676 15.3212 11.625 15.3165 11.5328 15.3115C11.4218 15.3019 11.3112 15.2881 11.2013 15.2703C11.2013 15.2703 11.1758 15.2652 11.1663 15.2812C11.1563 15.297 11.1902 15.332 11.2207 15.3418C11.3857 15.3928 11.3942 15.3842 11.5072 15.3855C11.569 15.3855 11.6042 15.3805 11.6672 15.3757C11.7462 15.3707 11.7828 15.3832 11.869 15.36C11.8908 15.354 11.9125 15.3125 11.881 15.3115M12.4443 15.1442C12.4443 15.1442 12.4273 15.1248 12.3933 15.1418C12.37 15.1545 12.3508 15.1733 12.3375 15.1962C12.3375 15.1962 12.3215 15.2218 12.3555 15.217C12.3811 15.2136 12.4059 15.2054 12.4285 15.1927C12.437 15.1877 12.4625 15.1635 12.4443 15.143M11.9525 8.3855C11.9525 8.3855 12.1917 8.1625 12.3617 7.868C12.4637 7.692 12.5073 7.2835 12.42 7.3855C12.381 7.4315 12.3338 7.6435 12.2585 7.80125C12.1505 8.0255 11.921 8.34175 11.921 8.34175C11.921 8.34175 11.8725 8.44725 11.9528 8.38675M11.001 8.9515C11.001 8.9515 10.9755 8.971 10.9878 9.0025C10.9985 9.034 11.0483 9.00975 11.0483 9.00975C11.0483 9.00975 11.1575 8.9685 11.273 8.96375C11.388 8.95875 11.5485 8.99375 11.5485 8.99375C11.5485 8.99375 11.625 9.0145 11.6385 9.0195C11.6515 9.02425 11.693 9.04475 11.699 9.04725C11.7063 9.04975 11.745 9.069 11.767 9.04975C11.7888 9.029 11.6285 8.88375 11.4635 8.8605C11.1893 8.823 11.0095 8.94175 11.0095 8.94175L11.001 8.9515ZM9.871 9.9165C9.8905 9.93225 9.98275 9.759 10.059 9.6485C10.115 9.56725 10.2183 9.43275 10.2183 9.43275C10.2183 9.43275 10.2642 9.371 10.1865 9.406C10.155 9.4205 10.0675 9.486 10.0057 9.6085C9.9535 9.7115 9.8515 9.90175 9.871 9.9175M9.2375 9.15875C9.2375 9.15875 9.218 9.2255 9.29675 9.31025C9.37575 9.39525 9.3965 9.46525 9.44725 9.4145C9.462 9.40125 9.3975 9.286 9.36475 9.2545C9.33225 9.223 9.309 9.1975 9.309 9.1975L9.2885 9.1805L9.26175 9.166L9.247 9.16C9.247 9.16 9.24225 9.1565 9.2375 9.15875ZM8.98125 8.5115C8.98125 8.5115 8.895 8.52725 8.8745 8.5685C8.85375 8.60975 8.97275 8.58425 8.97275 8.58425C8.97275 8.58425 9.05275 8.58925 9.054 8.55875C9.0565 8.5285 9.04425 8.52475 8.98125 8.5115ZM7.61825 10.7675C7.57575 10.754 7.56725 10.8413 7.56225 10.8678C7.55625 10.8958 7.58175 10.9515 7.5915 10.9515C7.60125 10.9515 7.6365 10.897 7.639 10.8702C7.64125 10.8435 7.65825 10.7797 7.61825 10.7675ZM9.0335 12.446C9.0335 12.446 8.956 12.3842 8.9435 12.4085C8.9315 12.4327 9.008 12.5417 9.008 12.5417C9.008 12.5417 9.031 12.5767 9.0675 12.5612C9.10375 12.5442 9.0905 12.5055 9.0905 12.5055C9.0905 12.5055 9.06625 12.4545 9.03475 12.446M8.4435 10.629C8.4435 10.629 8.423 10.6243 8.41575 10.6485C8.40825 10.6728 8.4095 10.7115 8.4035 10.7587C8.4 10.7962 8.41325 10.8945 8.41325 10.8945C8.41325 10.8945 8.4205 10.972 8.43625 11.0195C8.45325 11.0702 8.49825 11.142 8.49825 11.142C8.49825 11.142 8.51525 11.1795 8.53575 11.177C8.5565 11.1745 8.5515 11.1503 8.5515 11.1503C8.5515 11.1503 8.486 10.891 8.4835 10.8643C8.47625 10.7783 8.47625 10.6728 8.47625 10.6728V10.657C8.47625 10.657 8.475 10.6302 8.44225 10.629M8.5455 9.8365C8.5455 9.8365 8.509 9.829 8.47625 9.89825C8.44375 9.96825 8.44975 9.99625 8.45325 10C8.457 10.0035 8.4825 10.0025 8.525 9.93825C8.5675 9.874 8.5575 9.84975 8.5575 9.84975C8.5575 9.84975 8.55525 9.8365 8.54675 9.8365M9.5385 10.555C9.5385 10.555 9.582 10.6195 9.4985 10.605C9.4145 10.5902 9.2385 10.4523 9.16825 10.4145C9.0965 10.377 8.98125 10.3648 9.02975 10.3225C9.03825 10.315 9.04075 10.3078 9.05525 10.3068C9.07 10.3068 9.11725 10.3247 9.121 10.3272C9.1235 10.3285 9.247 10.3795 9.252 10.3805C9.257 10.3817 9.326 10.4122 9.3745 10.4412C9.4245 10.4702 9.5045 10.5262 9.5045 10.5262L9.5385 10.555ZM11.852 12.5442C11.875 12.6157 11.5885 12.3928 11.4355 12.2753C11.029 11.9625 10.5313 11.3225 10.593 11.2653C10.6443 11.2183 10.8492 11.5127 11.148 11.8352C11.467 12.1805 11.8385 12.5017 11.852 12.5442ZM13.0463 12.2388C12.9578 12.3333 12.9263 12.4545 12.977 12.5455C13.027 12.634 13.0425 12.417 13.0985 12.3527C13.146 12.2982 13.175 12.3068 13.255 12.2498C13.39 12.1553 13.1593 12.1188 13.0463 12.2388ZM12.5375 10.217C12.477 10.2073 12.4795 10.2995 12.488 10.366C12.528 10.6595 12.6605 10.886 12.8363 11.0995C12.943 11.229 13.238 11.4605 13.272 11.423C13.2843 11.4098 12.9917 11.1842 12.806 10.8945C12.6735 10.6885 12.6032 10.514 12.5875 10.3442C12.585 10.3225 12.59 10.2258 12.5375 10.217ZM11.3993 5.86175C11.2668 5.9345 11.0363 5.9975 11.0363 5.9975C11.0363 5.9975 11.0252 6.0205 11.0545 6.01825C11.251 6.0025 11.3263 5.977 11.432 5.932C11.5375 5.886 11.614 5.76125 11.614 5.76125C11.614 5.76125 11.6565 5.68375 11.5765 5.74775C11.5197 5.79056 11.4601 5.82948 11.398 5.86425M12.999 5.35625C12.999 5.35625 12.954 5.34675 12.9237 5.36475C12.8932 5.38425 12.903 5.39875 12.903 5.39875C12.903 5.39875 12.9492 5.43525 12.983 5.44C13.0172 5.445 13.0888 5.47625 13.085 5.452C13.0815 5.428 13.0415 5.383 13.028 5.371C13.0147 5.35875 12.999 5.35525 12.999 5.35525M12.2465 6.73575C12.2538 6.7515 12.3885 6.71525 12.4405 6.686C12.4818 6.663 12.4965 6.58675 12.4965 6.58675C12.4965 6.58675 12.5072 6.51275 12.4902 6.5405C12.414 6.6655 12.239 6.71875 12.2465 6.7345M12.2415 6.3915C12.2962 6.28725 12.0923 6.4995 11.989 6.55525C11.926 6.589 11.8228 6.63275 11.8228 6.63275C11.8228 6.63275 11.7947 6.66675 11.8337 6.66425C11.8712 6.66175 11.9685 6.6945 12.0463 6.634C12.0643 6.6195 12.1468 6.5005 12.1468 6.5005C12.1468 6.5005 12.216 6.4425 12.2417 6.39275M12.21 6.835C12.2135 6.85225 12.443 6.846 12.4987 6.83025C12.5437 6.817 12.568 6.73825 12.568 6.73825C12.568 6.73825 12.596 6.669 12.573 6.69225C12.4697 6.7975 12.2063 6.818 12.21 6.835ZM8.54925 8.92C8.54925 8.92 8.514 8.908 8.4715 8.97225C8.429 9.03625 8.23725 9.32725 8.27125 9.36975C8.31125 9.4205 8.4775 9.11025 8.52875 9.05225C8.5795 8.994 8.55875 8.93475 8.55875 8.93475C8.55875 8.93475 8.55875 8.92125 8.54925 8.92ZM12.7282 14.1685C12.7077 14.2642 12.7332 14.463 12.7647 14.5017C12.846 14.6 12.7963 14.3492 12.8073 14.2605C12.8168 14.178 12.8278 14.1505 12.8678 14.0618C12.9408 13.9043 12.7695 13.9625 12.727 14.1685M12.028 5.7565C12.028 5.7565 11.9647 5.7575 11.915 5.7855C11.8652 5.81225 11.853 5.851 11.853 5.851C11.853 5.851 11.8435 5.87875 11.8495 5.8945C11.864 5.92725 11.932 5.8775 11.9805 5.8945C12.0154 5.90412 12.0459 5.9256 12.0667 5.95525C12.0922 5.98675 12.1382 6.03025 12.1675 6.00475C12.1965 5.9795 12.1858 5.9165 12.1858 5.9165C12.1858 5.9165 12.1517 5.81325 12.108 5.78425C12.0642 5.75525 12.029 5.7565 12.029 5.7565M10.978 6.48C10.978 6.48 10.943 6.486 10.9513 6.5285C10.9598 6.571 10.9827 6.56475 10.9827 6.56475C10.9827 6.56475 11.0558 6.53325 11.052 6.48975C11.047 6.44475 10.9792 6.48125 10.9792 6.48125M10.4645 6.251C10.4645 6.251 10.4258 6.25225 10.399 6.2995C10.3723 6.34675 10.3565 6.39525 10.3565 6.39525C10.3565 6.39525 10.3433 6.45825 10.3663 6.47775C10.3893 6.497 10.4137 6.43775 10.445 6.4145C10.4645 6.4 10.4768 6.394 10.4975 6.3805C10.525 6.36125 10.57 6.3855 10.5665 6.32975C10.5627 6.274 10.5035 6.24725 10.4645 6.251ZM12.1225 5.6545C12.1225 5.6545 12.035 5.6425 12.0387 5.67525C12.0425 5.70675 12.0862 5.68725 12.1152 5.7005C12.1432 5.71275 12.1615 5.7175 12.1833 5.738C12.199 5.75275 12.1977 5.78175 12.2172 5.78175C12.2452 5.78175 12.239 5.771 12.239 5.771C12.239 5.771 12.2135 5.69575 12.1807 5.674C12.1482 5.652 12.1213 5.6545 12.1213 5.6545M13.0972 6.006C13.085 6.0535 13.0765 6.07025 13.0765 6.07025C13.0765 6.07025 13.0522 6.16725 13.1495 6.131C13.2465 6.09575 13.197 6.11025 13.266 6.07625C13.3352 6.0425 13.334 6.0605 13.385 6.063C13.402 6.063 13.4127 6.06425 13.4395 6.0595C13.4612 6.0545 13.453 6.02775 13.403 6.01575C13.351 6.00125 13.2855 6.00475 13.21 6.00475C13.1665 6.00475 13.1105 5.96 13.0972 6.00725M13.1397 5.64975C13.1397 5.64975 13.0947 5.64 13.0645 5.65825C13.034 5.6775 13.0437 5.69225 13.0437 5.69225C13.0437 5.69225 13.09 5.7285 13.1237 5.73325C13.158 5.73825 13.2295 5.76975 13.226 5.7455C13.2222 5.72125 13.1822 5.6765 13.1687 5.66425C13.1604 5.65684 13.1505 5.65145 13.1397 5.6485M13.312 6.31875C13.312 6.31875 13.2648 6.309 13.2308 6.32725C13.198 6.3455 13.2078 6.36 13.2078 6.36C13.2078 6.36 13.2575 6.394 13.2928 6.39875C13.329 6.40375 13.4055 6.43275 13.402 6.40975C13.3983 6.38675 13.3558 6.34425 13.3413 6.33325C13.3268 6.32125 13.3108 6.31875 13.3108 6.31875M13.3255 6.56125C13.3255 6.56125 13.2745 6.55025 13.2405 6.571C13.2065 6.5915 13.2163 6.6085 13.2163 6.6085C13.2163 6.6085 13.2685 6.64725 13.3062 6.6535C13.3437 6.6595 13.425 6.692 13.4213 6.66675C13.4178 6.64 13.3728 6.59175 13.357 6.57925C13.3475 6.5713 13.3363 6.56558 13.3243 6.5625M13.3485 6.79875C13.3485 6.79875 13.294 6.78675 13.2563 6.80975C13.2188 6.83275 13.2308 6.85225 13.2308 6.85225C13.2308 6.85225 13.2878 6.897 13.329 6.903C13.3703 6.909 13.4578 6.948 13.454 6.9175C13.4505 6.8875 13.4008 6.8325 13.385 6.81825C13.3747 6.80942 13.3627 6.80278 13.3497 6.79875M13.3438 7.091C13.3438 7.091 13.289 7.07875 13.2513 7.10175C13.2138 7.12475 13.226 7.14425 13.226 7.14425C13.226 7.14425 13.283 7.18925 13.3243 7.19525C13.3655 7.20125 13.453 7.24 13.4493 7.20975C13.4455 7.1795 13.3958 7.12475 13.38 7.11025C13.3697 7.10154 13.3578 7.095 13.345 7.091M13.3035 7.66175C13.3035 7.66175 13.249 7.64975 13.2113 7.67275C13.1738 7.69575 13.1858 7.71525 13.1858 7.71525C13.1858 7.71525 13.243 7.76 13.2843 7.766C13.3255 7.772 13.4143 7.811 13.4093 7.7805C13.4055 7.7515 13.3558 7.69575 13.34 7.68125C13.323 7.66675 13.305 7.66175 13.305 7.66175M13.34 7.37575C13.34 7.37575 13.277 7.36125 13.2332 7.389C13.1907 7.41575 13.2028 7.4375 13.2028 7.4375C13.2028 7.4375 13.2685 7.4885 13.3158 7.497C13.3633 7.50425 13.465 7.549 13.4602 7.514C13.4565 7.48 13.3995 7.41575 13.3787 7.399C13.3668 7.38864 13.3527 7.38112 13.3375 7.377M13.2758 7.91875C13.2758 7.91875 13.2308 7.909 13.1993 7.92725C13.1688 7.94675 13.1772 7.96225 13.1772 7.96225C13.1772 7.96225 13.2247 7.99875 13.2587 8.00475C13.2927 8.011 13.3655 8.04125 13.3617 8.017C13.3582 7.99275 13.3183 7.948 13.3048 7.9345C13.2915 7.9225 13.2758 7.91875 13.2758 7.91875ZM13.2332 8.166C13.2332 8.166 13.1958 8.1575 13.17 8.1735C13.1445 8.189 13.152 8.2025 13.152 8.2025C13.152 8.2025 13.1907 8.2325 13.2188 8.2375C13.2465 8.2425 13.3073 8.26775 13.3048 8.2475C13.3023 8.22675 13.2685 8.189 13.2572 8.1795C13.2501 8.17366 13.242 8.16909 13.2332 8.166ZM13.181 8.3915C13.181 8.3915 13.147 8.38425 13.124 8.399C13.101 8.41325 13.1082 8.42425 13.1082 8.42425C13.1082 8.42425 13.1432 8.452 13.1687 8.45575C13.1942 8.4595 13.2478 8.4835 13.2465 8.46425C13.244 8.446 13.214 8.412 13.204 8.40375C13.193 8.39375 13.1823 8.3915 13.1823 8.3915M13.1263 8.577C13.1263 8.577 13.0925 8.5695 13.0693 8.58425C13.0463 8.59875 13.0535 8.60975 13.0535 8.60975C13.0535 8.60975 13.0888 8.6375 13.1143 8.64125C13.1398 8.64475 13.1942 8.669 13.1917 8.64975C13.1895 8.6315 13.1593 8.5975 13.1493 8.589C13.1398 8.5795 13.1275 8.577 13.1275 8.577M13.062 8.7915C13.062 8.7915 13.0342 8.7855 13.016 8.7965C12.9977 8.8085 13.0025 8.817 13.0025 8.817C13.0025 8.817 13.0305 8.83875 13.0513 8.8425C13.0718 8.846 13.1155 8.86425 13.113 8.84975C13.1117 8.83525 13.0863 8.80725 13.078 8.8C13.0693 8.7925 13.0608 8.79025 13.0608 8.79025M12.9855 8.9915C12.9855 8.9915 12.9625 8.9865 12.9467 8.9965C12.931 9.006 12.9358 9.0145 12.9358 9.0145C12.9358 9.0145 12.96 9.034 12.9782 9.03625C12.9952 9.03875 13.0342 9.05575 13.0317 9.0425C13.0305 9.029 13.0088 9.006 13.0013 9C12.994 8.994 12.9867 8.9915 12.9867 8.9915M12.9055 9.183C12.9055 9.183 12.8825 9.178 12.8655 9.188C12.8495 9.1975 12.8545 9.206 12.8545 9.206C12.8545 9.206 12.8788 9.2255 12.897 9.22775C12.914 9.23025 12.9527 9.24725 12.9502 9.234C12.9492 9.22175 12.9272 9.1975 12.9202 9.1915C12.9127 9.1855 12.9052 9.183 12.9052 9.183H12.9055ZM7.74075 10.1525C7.74075 10.1525 7.70075 10.2303 7.72025 10.2725C7.7395 10.315 7.79275 10.205 7.79275 10.205C7.79275 10.205 7.84875 10.0957 7.82575 10.075C7.80275 10.0545 7.78925 10.1115 7.7395 10.1525M10.7692 16.9405C10.7692 16.9405 10.74 16.9018 10.711 16.9298C10.683 16.9575 10.6465 17.0023 10.5798 16.9988C10.5348 16.9974 10.4907 16.9871 10.4497 16.9685C10.4135 16.9528 10.3625 16.9285 10.3625 16.9285C10.3625 16.9285 10.229 16.8775 10.1163 16.874C10.0033 16.8715 9.81875 16.919 9.72875 17.0145C9.63925 17.1115 9.61725 17.211 9.61725 17.211C9.61725 17.211 9.587 17.3868 9.638 17.468C9.689 17.549 9.74475 17.6353 9.86975 17.7115C9.9935 17.7878 10.0483 17.8158 10.0483 17.8158L10.2642 17.9153L10.4645 17.9902C10.4645 17.9902 10.7535 18.0763 10.7887 18.2945C10.8237 18.5128 10.6928 18.7952 10.2945 18.8205C9.9025 18.846 9.712 18.6558 9.65 18.5345C9.5895 18.412 9.6245 18.309 9.6245 18.309L9.6415 18.2752L9.65625 18.2677C9.65625 18.2677 9.71675 18.309 9.77625 18.3018C9.83575 18.2945 9.94625 18.2217 9.92325 18.1055C9.9 17.988 9.7945 17.9625 9.74475 17.966C9.69375 17.971 9.4705 18.029 9.4655 18.3552C9.4605 18.6812 9.758 18.8545 9.758 18.8545C9.758 18.8545 9.96925 18.9855 10.2072 18.9745C10.445 18.9638 10.6418 18.869 10.6418 18.869C10.6418 18.869 10.9937 18.6933 11.0035 18.3115C11.0132 17.9285 10.7705 17.7952 10.7705 17.7952C10.7705 17.7952 10.683 17.7345 10.604 17.697C10.5253 17.6605 10.3335 17.5685 10.3335 17.5685L10.1392 17.48L10.0215 17.4145L9.956 17.371C9.956 17.371 9.79825 17.2473 9.88325 17.114C9.96675 16.9795 10.2098 17.0303 10.2098 17.0303C10.2098 17.0303 10.3977 17.0702 10.5435 17.1745C10.6902 17.28 10.7753 17.406 10.7753 17.406L10.836 17.5055L10.8433 17.5187L10.8955 17.5005C10.8955 17.5005 10.814 17.2753 10.7995 17.1805C10.785 17.086 10.7692 16.9405 10.7692 16.9405ZM13.0925 18.2302C13.0925 18.2302 13.1445 18.2885 13.215 18.2885C13.2855 18.2885 13.386 18.24 13.385 18.1127C13.3838 17.9867 13.255 17.9527 13.255 17.9527C13.255 17.9527 13.0608 17.9067 12.9663 18.1042C12.8713 18.3005 12.9237 18.4718 12.9237 18.4718C12.9237 18.4718 12.9675 18.7367 13.2487 18.8932C13.5292 19.0507 13.8305 18.9345 13.8305 18.9345C13.8305 18.9345 14.0563 18.8595 14.2515 18.64C14.447 18.4205 14.5405 18.16 14.5405 18.16L14.6095 17.989H14.692C14.692 17.989 14.8062 18.0012 14.8875 17.9357C14.9398 17.892 14.9842 17.8395 15.0188 17.7808L15.0295 17.7528L14.9775 17.7285C14.9775 17.7285 14.918 17.806 14.8355 17.8135C14.753 17.8205 14.668 17.8072 14.668 17.8072L14.7467 17.5952C14.7467 17.5952 14.8393 17.411 14.8645 17.3685C14.89 17.326 14.997 17.189 14.997 17.189C14.997 17.189 15.2165 17.1877 15.429 17.143C15.546 17.1195 15.6608 17.0867 15.7725 17.0448L16.0345 16.937L16.099 16.902L16.0795 16.8495C16.0795 16.8495 15.8427 16.9332 15.4932 16.9732C15.1437 17.0132 14.924 16.9697 14.924 16.9697L14.527 16.909C14.527 16.909 14.407 16.8898 14.3135 16.8873C14.22 16.886 14.0308 16.9212 14.0308 16.9212C14.0308 16.9212 13.8413 16.9637 13.7563 17.028C13.6713 17.0922 13.4675 17.2413 13.561 17.4705C13.6542 17.6995 14.0343 17.577 14.0878 17.4072C14.0865 17.4085 14.1095 17.3528 14.1095 17.3528L14.1155 17.3225L14.084 17.3102L14.0452 17.3552C14.0452 17.3552 13.9032 17.474 13.794 17.3978C13.6847 17.3213 13.759 17.2145 13.7697 17.2025C13.7805 17.1902 13.84 17.1188 13.9823 17.086C14.124 17.0545 14.3378 17.1055 14.3378 17.1055L14.5695 17.148C14.5695 17.148 14.6983 17.1723 14.7045 17.1723C14.7105 17.1723 14.7517 17.1782 14.7517 17.1782L14.6702 17.268C14.6702 17.268 14.5528 17.3805 14.4703 17.5443C14.3875 17.7068 14.35 17.7927 14.35 17.7927L14.3425 17.8048C14.3425 17.8048 14.2382 17.817 14.1725 17.857C14.1072 17.897 14.0647 17.9575 14.0647 17.9575L14.0343 18.0123L14.0755 18.0473C14.0755 18.0473 14.123 17.994 14.1812 17.9783C14.2395 17.9625 14.283 17.9855 14.283 17.9855C14.283 17.9855 14.1995 18.1927 14.1593 18.268C14.1193 18.343 14.0525 18.48 13.9578 18.5818C13.8633 18.6838 13.794 18.772 13.5778 18.8025C13.3618 18.8325 13.209 18.6945 13.152 18.6255C13.0972 18.5536 13.0647 18.4672 13.0585 18.377C13.0548 18.3005 13.0948 18.228 13.0948 18.228M12.125 2L4.75 3.39875V3.84125L12.125 2.47875L19.5 3.84125V3.39875L12.125 2Z" fill="var(--fill-0, black)"/>
</g>
</svg>
