<svg preserveAspectRatio="none" width="100%" height="100%" overflow="visible" style="display: block;" viewBox="0 0 24 24" fill="none" xmlns="http://www.w3.org/2000/svg">
<g id="Haas">
<path id="Vector" fill-rule="evenodd" clip-rule="evenodd" d="M12.6715 3.25C7.79403 3.25 3.84303 7.201 3.84303 12.0798C3.84303 12.254 3.84878 12.4222 3.85553 12.591H2.70328C2.63903 12.591 2.60578 12.63 2.58078 12.676C2.56103 12.7205 1.53728 14.5217 1.51203 14.5665C1.49253 14.6115 1.49253 14.6377 1.54403 14.6377H4.21903C5.31403 18.2642 8.68153 20.9083 12.6715 20.9083C17.549 20.9083 21.5 16.9573 21.5 12.0798C21.5 7.20225 17.549 3.25 12.6715 3.25ZM6.36303 14.6375H8.71478L7.58078 16.6005C7.06981 16.0175 6.6582 15.3543 6.36303 14.6375ZM12.6715 18.8867C10.8188 18.8867 9.14703 18.1485 7.91653 16.9492H9.82803C9.82803 16.9492 15.32 7.272 15.3395 7.23425C15.366 7.19525 15.3533 7.169 15.3145 7.169H13.0725C13.0278 7.169 13.021 7.18275 13.0083 7.20225C12.9945 7.22175 9.91153 12.591 9.91153 12.591H5.88253C5.86906 12.4209 5.86255 12.2504 5.86303 12.0798C5.86303 8.32225 8.90703 5.27125 12.67 5.27125C14.5873 5.27125 16.323 6.06825 17.56 7.35125C17.0225 8.25825 14.6125 12.3513 14.289 12.9475C14.101 12.513 13.233 12.598 12.786 12.591C12.591 12.9142 11.6785 14.6377 11.6785 14.6377C11.6785 14.6377 12.1828 14.6307 12.6368 14.6377C13.0783 14.6445 13.1298 15.1043 12.9543 15.3955C12.7793 15.6868 12.0603 16.949 12.0603 16.949H14.3728C14.3728 16.949 17.2103 11.9938 18.8228 9.1765C19.2548 10.0828 19.478 11.0745 19.476 12.0785C19.476 15.836 16.426 18.8857 12.669 18.8857L12.6715 18.8867Z" fill="var(--fill-0, white)"/>
</g>
</svg>
