<svg preserveAspectRatio="none" width="100%" height="100%" overflow="visible" style="display: block;" viewBox="0 0 24 24" fill="none" xmlns="http://www.w3.org/2000/svg">
<g id="Kick Sauber">
<path id="Vector" d="M20.2925 8.49675C19.8409 7.42734 19.1859 6.45578 18.364 5.636C17.5291 4.79915 16.5371 4.13548 15.445 3.68311C14.3528 3.23075 13.1821 2.9986 12 3C10.785 3 9.60625 3.238 8.49675 3.7075C7.42734 4.15912 6.45578 4.81407 5.636 5.636C4.81412 6.45582 4.15918 7.42737 3.7075 8.49675C3.23831 9.60499 2.99767 10.7965 3 12C3 13.215 3.238 14.3938 3.7075 15.5033C4.15912 16.5727 4.81407 17.5442 5.636 18.364C6.4709 19.2009 7.4629 19.8645 8.55503 20.3169C9.64715 20.7693 10.8179 21.0014 12 21C13.215 21 14.3938 20.762 15.5033 20.2925C16.5727 19.8409 17.5442 19.1859 18.364 18.364C19.2009 17.5291 19.8645 16.5371 20.3169 15.445C20.7693 14.3528 21.0014 13.1821 21 12C21 10.785 20.762 9.60625 20.2925 8.49675Z" fill="var(--fill-0, black)"/>
<path id="Vector_2" d="M8.41175 16.948C8.327 16.948 8.26 16.9717 8.211 17.019C8.18756 17.0404 8.16891 17.0665 8.15624 17.0957C8.14358 17.1248 8.13719 17.1562 8.1375 17.188C8.1375 17.2535 8.15275 17.3012 8.1835 17.331C8.2145 17.361 8.29925 17.4065 8.43775 17.4685C8.5765 17.53 8.6715 17.595 8.7225 17.6635C8.7735 17.7317 8.799 17.8315 8.799 17.9625C8.799 18.1805 8.73225 18.3478 8.59825 18.465C8.46425 18.5828 8.28375 18.6418 8.0565 18.6418C7.96575 18.6418 7.8705 18.6317 7.77025 18.6125C7.69107 18.5985 7.6129 18.5793 7.53625 18.555L7.4555 18.5233L7.52175 18.237C7.7395 18.2755 7.9105 18.2945 8.03475 18.2945C8.159 18.2945 8.25025 18.273 8.308 18.2297C8.36575 18.1862 8.3945 18.1128 8.3945 18.0088C8.3945 17.9528 8.37775 17.91 8.344 17.8803C8.3105 17.8503 8.228 17.8055 8.097 17.746C7.966 17.686 7.87275 17.6207 7.817 17.5492C7.761 17.4782 7.733 17.3788 7.733 17.2518C7.733 17.0648 7.79375 16.9107 7.915 16.7892C8.03625 16.668 8.198 16.6073 8.4005 16.6073C8.493 16.6073 8.58975 16.6165 8.6905 16.6348C8.792 16.6533 8.8695 16.6707 8.9235 16.6882L9.00425 16.717L8.932 17C8.72025 16.9655 8.5465 16.9482 8.412 16.9482L8.41175 16.948ZM8.7075 18.6065L9.59175 16.6415H10.2795L10.2188 18.6065H9.82L9.8315 18.2655H9.2595L9.10625 18.6065H8.7075ZM9.82575 16.9885L9.40975 17.919H9.846L9.88675 16.9885H9.82575ZM10.8365 17.9387C10.8202 18.0035 10.8115 18.07 10.8105 18.1367C10.8105 18.1955 10.8303 18.2368 10.8698 18.2598C10.9093 18.2828 10.9785 18.294 11.0778 18.294C11.177 18.294 11.2515 18.2675 11.3018 18.2148C11.3518 18.1615 11.3912 18.0697 11.4202 17.9385L11.7207 16.6415H12.1195L11.819 17.9385C11.7633 18.1852 11.672 18.364 11.546 18.4748C11.4197 18.5855 11.2528 18.641 11.0445 18.641C10.6245 18.641 10.4145 18.4925 10.4145 18.196C10.4145 18.096 10.427 17.9885 10.452 17.8752L10.7382 16.6413H11.1372L10.8368 17.9385L10.8365 17.9387ZM13.069 16.6418C13.4118 16.6418 13.5833 16.783 13.5833 17.0665C13.5833 17.1917 13.5565 17.2945 13.5025 17.3752C13.4485 17.4565 13.3675 17.5295 13.26 17.5952C13.335 17.6395 13.385 17.6878 13.41 17.7395C13.435 17.792 13.4475 17.857 13.4475 17.936C13.4475 18.129 13.3807 18.2885 13.247 18.416C13.113 18.5428 12.9218 18.6063 12.6735 18.6063H11.9335L12.3875 16.6413H13.0695L13.069 16.6418ZM12.8492 17.7833H12.5227L12.41 18.2658H12.7507C12.8375 18.2658 12.9067 18.2358 12.959 18.176C13.0107 18.1163 13.0367 18.0392 13.0367 17.945C13.0367 17.8367 12.9742 17.7833 12.8492 17.7833ZM13.0055 16.9825H12.7075L12.5975 17.4508H12.895C12.974 17.4508 13.0407 17.4222 13.0945 17.3657C13.1485 17.309 13.1755 17.2357 13.1755 17.1472C13.1755 17.0372 13.119 16.9825 13.0055 16.9825ZM13.5035 18.6065L13.9543 16.6415H15.1073L15.0262 16.9883H14.275L14.168 17.4508H14.763L14.6823 17.7973H14.0898L13.9827 18.2595H14.7373L14.6593 18.606H13.5033L13.5035 18.6065ZM15.881 16.6418C16.089 16.6418 16.2423 16.6853 16.3405 16.773C16.4385 16.8605 16.488 16.9987 16.488 17.1877C16.488 17.3767 16.4465 17.5343 16.3635 17.6615C16.2808 17.789 16.1758 17.8775 16.0485 17.9275L16.2075 18.6065H15.8088L15.6787 17.9823H15.4043L15.2598 18.6065H14.8608L15.3147 16.6415L15.881 16.6418ZM15.9865 17.5173C16.0473 17.4343 16.0775 17.3428 16.0775 17.2428C16.0775 17.1428 16.061 17.074 16.0283 17.0375C15.9955 17.0008 15.9388 16.9825 15.8578 16.9825H15.6353L15.482 17.6415H15.7393C15.8433 17.6415 15.9255 17.6 15.986 17.5173H15.9865Z" fill="var(--fill-0, white)"/>
<path id="Vector_3" fill-rule="evenodd" clip-rule="evenodd" d="M7.6075 5.24125H10.948V7.46825H12.0615V6.355H13.1748V5.24175H16.5155V8.58225H15.402V9.69575H14.2885V10.809H15.402V11.9225H16.5155V15.263H13.1748V14.1497H12.0615V13.0363H10.948V15.2633H7.6075V5.24125Z" fill="var(--fill-0, #00E701)"/>
</g>
</svg>
