<svg preserveAspectRatio="none" width="100%" height="100%" overflow="visible" style="display: block;" viewBox="0 0 24 24" fill="none" xmlns="http://www.w3.org/2000/svg">
<g id="Mercedes">
<path id="Vector" fill-rule="evenodd" clip-rule="evenodd" d="M18.3652 5.63575C16.6652 3.93675 14.4053 3 12.001 3C9.59675 3 7.336 3.93675 5.636 5.63575C3.9365 7.33575 3 9.59625 3 12.0007C3 14.4047 3.93675 16.6643 5.63575 18.3643C7.336 20.0643 9.59675 21 12 21C14.4032 21 16.664 20.0633 18.3643 18.3643C20.0643 16.6643 21 14.4037 21 12.0005C21 9.5975 20.0633 7.33575 18.3643 5.63675L18.3652 5.63575ZM12.023 20.4713C9.67125 20.4713 7.5455 19.6005 6.00425 18.0595C5.45375 17.5087 4.9635 16.9155 4.58275 16.2595C3.90825 15.098 3.50575 13.7675 3.4575 12.3153C3.45075 12.1235 3.455 11.8253 3.4595 11.6155C3.418 11.6155 3.102 12.2068 3.0955 12.6818H3.09425C3.02004 11.7147 3.10303 10.742 3.34 9.8015C3.73825 8.223 4.5675 6.805 5.6875 5.68275C6.51536 4.852 7.49942 4.19328 8.58298 3.74452C9.66654 3.29576 10.8282 3.06584 12.001 3.068C16.711 3.068 20.5853 7.01225 20.5853 12.018C20.5853 14.0965 19.7813 16.0312 18.4498 17.5395C16.6343 19.595 14.1827 20.4713 12.023 20.4713Z" fill="var(--fill-0, white)"/>
<path id="Vector_2" fill-rule="evenodd" clip-rule="evenodd" d="M20.3485 11.7243C20.2782 9.526 19.335 7.56725 17.909 6.10725C16.8207 4.993 14.797 3.52975 12.023 3.52975C11.954 3.52975 11.888 3.531 11.888 3.531C9.74375 3.6165 7.82075 4.45 6.384 5.74525C4.7265 7.23925 3.7085 9.38575 3.7085 11.7988C3.7085 16.378 6.918 19.6455 11.3242 19.9217C11.548 19.936 11.773 19.9438 12.001 19.9438C14.842 19.9438 17.321 18.4563 18.7327 16.2213C18.8554 16.2005 18.9724 16.1542 19.076 16.0853C19.0835 16.015 19.0915 15.856 19.0267 15.7145C19.5587 14.713 19.88 13.5625 19.937 12.3418C19.9512 12.0335 19.9447 11.7043 19.9217 11.3995C19.9787 11.8953 20.3035 12.4635 20.3442 12.4623C20.3485 12.2168 20.3517 11.904 20.3462 11.7253L20.3485 11.7243ZM6.4335 6.433C7.84275 5.02375 9.69325 4.21425 11.6732 4.13425L10.663 11.1758C10.6591 11.2056 10.6436 11.2328 10.62 11.2515L5.0215 15.653C4.437 14.5398 4.1275 13.2948 4.1275 12.0018C4.1275 9.898 4.947 7.9215 6.43425 6.43425L6.4335 6.433ZM18.9805 15.652L13.346 11.2295C13.3305 11.2153 13.324 11.202 13.3195 11.1648L12.327 4.13725C12.215 4.0375 12.1557 3.962 12 3.92475V11.8263C12 11.847 11.999 11.8745 12.0065 11.882C12.0165 11.892 12.0482 11.881 12.0735 11.8678C12.0735 11.8678 12.8205 11.4873 13.0685 11.371C13.142 11.338 13.167 11.3545 13.235 11.4038C13.9415 11.9338 18.362 15.245 18.9422 15.6793C18.9642 15.6958 18.9717 15.7123 18.9905 15.7758C19.0025 15.8165 19.0235 15.9348 19.0102 16.0445L12.1525 12.0883C12.1525 12.0883 12.1295 12.074 12.113 12.085C12.103 12.0915 12.101 12.1015 12.0997 12.1278C12.0855 12.3888 12.0602 12.9648 12.034 13.2795C12.0252 13.3913 12.0252 13.4625 12.001 13.4625C11.977 13.4625 11.977 13.39 11.967 13.2795C11.9375 12.958 11.909 12.3813 11.897 12.1268C11.8957 12.1038 11.8935 12.096 11.8827 12.0905C11.8662 12.083 11.8552 12.0883 11.831 12.1025C10.9502 12.6105 5.661 15.6575 5.006 16.0358C5.095 16.1235 5.197 16.1675 5.35075 16.2168L12.001 13.546L18.6537 16.2175C18.3424 16.7051 17.9786 17.1571 17.5687 17.5655C16.0815 19.053 14.1037 19.8722 12.0012 19.8722C9.89825 19.8722 7.92075 19.053 6.43325 17.5655C6.19068 17.3187 5.96255 17.0581 5.75 16.785C5.60938 16.603 5.47684 16.4149 5.35275 16.2213C5.151 16.2103 5.00075 16.1378 4.92725 16.083C4.9075 15.9458 4.946 15.8143 4.97325 15.745C5.015 15.7133 9.884 12.074 10.6957 11.4675C10.7725 11.4105 10.7945 11.3908 10.8745 11.428C11.1695 11.563 11.886 11.9655 11.9012 11.9425C11.9222 11.9118 11.025 11.2963 10.9635 11.2218C10.913 11.1605 10.936 10.9905 10.9415 10.9343C10.969 10.7018 11.729 4.065 11.7322 4.0375C11.7555 4.01125 11.784 3.98175 11.818 3.95325C11.9407 3.85325 12.001 3.83025 12.001 3.83025C12.0712 3.862 12.2237 3.93025 12.328 4.132C14.309 4.212 16.1595 5.0215 17.569 6.431C19.0565 7.91825 19.8757 9.89575 19.8757 11.9985C19.8782 13.2701 19.5714 14.5232 18.9817 15.6498L18.9805 15.652Z" fill="var(--fill-0, white)"/>
</g>
</svg>
