<svg preserveAspectRatio="none" width="100%" height="100%" overflow="visible" style="display: block;" viewBox="0 0 24 24" fill="none" xmlns="http://www.w3.org/2000/svg">
<g id="Racing Bulls">
<path id="Vector" d="M12.839 7.389C12.839 5.7935 11.5257 4.5 9.90549 4.5H6.34599V10.3272C6.40049 10.3702 6.45199 10.417 6.49874 10.4683C6.90274 10.9133 6.93949 11.6682 6.58049 12.1515C6.50949 12.247 6.43024 12.3375 6.34599 12.424V13.519C6.38549 13.4963 6.42599 13.4723 6.46774 13.4478C6.49324 13.4325 6.52524 13.4128 6.55099 13.3958C6.56724 13.3853 6.62399 13.3455 6.81749 13.1945C7.17174 12.918 7.61299 12.5732 8.09974 12.4605C8.20444 12.4339 8.3104 12.4125 8.41724 12.3965V6.18025H9.47499C10.2397 6.18025 10.8207 6.75275 10.8207 7.4595C10.8207 8.16625 10.201 8.73925 9.43574 8.73925H8.95524V11.0782L9.53899 11.9823C9.59724 11.9323 9.65599 11.8792 9.71524 11.8255L9.72699 11.8145L9.73949 11.804C10.1952 11.4307 10.6705 11.2602 11.2765 11.254L11.3182 11.2148L10.6045 10.1952C11.8872 9.8865 12.839 8.7475 12.839 7.389ZM16.9037 4.5H13.577V10.0363C13.635 10.0013 13.6945 9.963 13.7552 9.92425C13.8732 9.8485 14.0045 9.76425 14.1442 9.69025L14.1667 9.6785L14.1892 9.66875C14.44 9.56125 14.729 9.50375 15.0252 9.50375C15.246 9.50375 15.461 9.53725 15.652 9.6V6.18H16.9507C17.5212 6.18 17.9832 6.70375 17.9832 7.2765C17.9832 7.849 17.521 8.31275 16.9507 8.31275H16.2745V9.8985C16.3257 9.93175 16.3817 9.97 16.4447 10.0142L16.4655 10.029L16.5162 10.0712H17.5145C18.2055 10.0712 18.728 10.631 18.728 11.3245C18.7197 11.5645 18.6642 11.7783 18.5675 11.9598C18.8547 12.313 19.216 12.7777 19.4292 13.1267L19.4367 13.14C19.5297 13.3005 19.6135 13.5065 19.668 13.6975C20.3847 13.1843 20.8467 12.3797 20.8467 11.4765C20.8467 10.363 20.4557 9.56875 19.1437 8.95775C19.6762 8.459 20.002 7.79125 20.002 7.05675C20.002 6.39175 19.747 5.7805 19.3007 5.301C18.8362 4.78775 18.0142 4.5 16.9037 4.5ZM12.915 17.7245C12.9535 17.7803 12.99 17.862 13.0257 17.9405C13.082 18.065 13.1305 18.1725 13.1875 18.1905C13.2107 18.198 13.2375 18.2017 13.2675 18.2017C13.397 18.2017 13.577 18.1313 13.706 18.0298C13.7792 17.968 13.7555 17.9275 13.7232 17.8717C13.6759 17.7891 13.64 17.7003 13.6165 17.608C13.5805 17.483 13.55 17.3755 13.4162 17.3948C13.2245 17.4223 13.0387 17.4352 12.8317 17.4352C12.8292 17.4352 12.7642 17.4357 12.7442 17.4807C12.7217 17.5335 12.7737 17.582 12.8292 17.6332C12.8605 17.6617 12.8927 17.6918 12.9152 17.725L12.915 17.7245ZM3.43399 18.3612C3.42731 18.3612 3.42068 18.3625 3.41449 18.365C3.30524 18.41 3.17799 18.553 3.17174 18.6375C3.14424 19.0098 3.13349 19.049 3.03224 19.1628C3.00374 19.1948 2.98474 19.2677 3.01674 19.3002C3.04474 19.3285 3.40924 19.445 3.44974 19.445L3.45799 19.444C3.49074 19.434 3.51749 19.3505 3.59124 19.094C3.63099 18.9557 3.67624 18.7995 3.72624 18.6572C3.72974 18.6485 3.73049 18.6347 3.69724 18.5872C3.65474 18.5267 3.51374 18.361 3.43449 18.361L3.43399 18.3612Z" fill="var(--fill-0, white)"/>
<path id="Vector_2" d="M20.966 17.7632L20.7415 17.6505C20.4755 17.4945 20.322 17.2357 20.1733 16.9855C20.115 16.8877 20.0545 16.786 19.9893 16.6935C19.9463 16.6305 19.8735 16.565 19.8093 16.507C19.753 16.4565 19.7 16.409 19.6905 16.3827C19.4473 15.7167 19.1828 14.9332 19.1183 14.0627C19.1083 13.9295 19.0155 13.6385 18.9058 13.4487C18.5603 12.884 17.734 11.9167 17.689 11.8687C17.6603 11.838 17.629 11.807 17.6015 11.7807L17.5795 11.759L16.0928 10.519C15.797 10.3112 15.7068 10.274 15.4933 10.1965C15.3429 10.1445 15.1848 10.1188 15.0258 10.1205C14.8153 10.1205 14.605 10.1612 14.4323 10.2355C14.3143 10.298 14.1985 10.3722 14.0868 10.4437C13.8968 10.5657 13.7005 10.6915 13.4868 10.7632C13.321 10.838 13.1415 10.8937 12.9683 10.9475C12.6308 11.0525 12.2823 11.1607 12.0058 11.415C11.9382 11.4775 11.871 11.5404 11.8043 11.6037C11.5493 11.8455 11.5225 11.8705 11.313 11.8705C10.8288 11.8705 10.4855 11.9895 10.129 12.282C9.84601 12.5402 9.56526 12.7812 9.23901 12.8947C9.09276 12.9455 8.93026 12.9642 8.75826 12.9815C8.51101 13.0032 8.47326 13.0055 8.23851 13.0615C7.88601 13.143 7.51226 13.434 7.19526 13.6815C7.09176 13.7622 6.95276 13.8695 6.88726 13.9122C6.85351 13.9342 6.81201 13.9602 6.77876 13.9797C6.38551 14.2105 6.01426 14.4285 5.53876 14.4285L5.50376 14.4282C5.14901 14.4027 4.82551 14.157 4.71726 13.831C4.61726 13.4645 4.72476 13.0892 5.01226 12.8007C5.14951 12.6632 5.30501 12.53 5.45576 12.4015C5.69901 12.194 5.92876 11.9977 6.08826 11.783C6.27326 11.5332 6.25326 11.113 6.04476 10.8832C5.83701 10.6545 5.37226 10.5402 5.19751 10.4975L5.16751 10.49C5.15026 10.4855 5.11926 10.482 5.10301 10.4777C4.99226 10.456 4.88626 10.441 4.77801 10.4142C4.50151 10.3385 4.28801 10.1242 4.04301 9.99175C3.94851 10.1367 3.91726 10.2942 3.92976 10.4707C3.97676 10.8412 4.28376 11.2257 4.62476 11.3817L4.66826 11.399C4.77626 11.4455 4.89001 11.452 4.99651 11.452C5.01951 11.452 5.04251 11.452 5.06551 11.4512L5.13426 11.4507C5.20026 11.4507 5.27851 11.45 5.35051 11.4687C5.41676 11.486 5.48551 11.5512 5.49451 11.6352C5.50001 11.6845 5.47776 11.7227 5.41551 11.7712C5.35801 11.8197 5.30026 11.8677 5.24226 11.9155C4.94851 12.159 4.64526 12.4105 4.39851 12.7162C4.06826 13.0742 4.05351 13.6962 4.20676 14.0992C4.40351 14.6307 4.94776 14.927 5.39926 14.985C5.47951 14.9977 5.55976 15.004 5.64426 15.004C5.91051 15.004 6.16376 14.94 6.40926 14.8777C6.41679 14.8758 6.4245 14.8747 6.43226 14.8745C6.44351 14.8745 6.46476 14.8745 6.46851 14.931C6.47601 15.0407 6.48176 15.1652 6.48701 15.2857C6.49576 15.4815 6.50401 15.6665 6.51901 15.7447C6.55201 15.919 6.63801 16.1307 6.69501 16.2707C6.71901 16.33 6.73826 16.377 6.74501 16.4002C6.76701 16.4797 6.74626 16.5662 6.69351 16.615C6.50726 16.786 6.12951 16.9225 6.06001 16.9312C5.94801 16.9452 5.82901 16.9517 5.74201 16.9562C5.70946 16.9575 5.67695 16.9597 5.64451 16.9627C5.60511 16.9667 5.56824 16.984 5.54001 17.0117C5.48701 17.0635 5.42876 17.2132 5.36126 17.3867C5.32051 17.4907 5.27851 17.5985 5.23626 17.6882C5.11826 17.8857 4.91901 18.0015 4.72626 18.1132C4.67801 18.1412 4.63001 18.1692 4.58376 18.198L4.57851 18.2035C4.49901 18.3292 4.41976 18.4497 4.31826 18.5395C4.23876 18.6132 4.13726 18.6305 4.03976 18.642L4.03326 18.643L4.02851 18.648C3.87851 18.8207 3.83026 19.0505 3.78326 19.273C3.77626 19.3067 3.76876 19.3407 3.76126 19.3747L3.75476 19.4062L3.77476 19.408C3.85351 19.4155 3.93276 19.4327 4.01701 19.451C4.12751 19.4752 4.24151 19.5 4.35376 19.5C4.45976 19.5 4.55126 19.4775 4.63226 19.4325C4.77601 19.3657 4.85226 19.234 4.92651 19.106C4.97551 19.022 5.02576 18.935 5.09526 18.8677C5.1142 18.8462 5.13772 18.8291 5.1641 18.8177C5.19048 18.8064 5.21907 18.8011 5.24776 18.8022C5.30376 18.8022 5.36526 18.8187 5.42501 18.8347C5.47926 18.849 5.53551 18.8642 5.58876 18.8672C5.85376 18.8817 6.10476 18.7152 6.22751 18.6175C6.28126 18.575 6.33451 18.5247 6.38651 18.476C6.46676 18.4007 6.54976 18.3225 6.63801 18.2672C6.74551 18.2157 6.87601 18.1907 7.03651 18.1907C7.23576 18.1907 7.44726 18.2305 7.61601 18.2622C7.70626 18.2862 7.79876 18.298 7.89126 18.298C8.05201 18.298 8.20226 18.261 8.32526 18.1912C8.47276 18.1072 8.62151 18.0292 8.74076 17.9665C8.81051 17.9297 8.87201 17.8972 8.92076 17.8707C9.13301 17.7537 9.31201 17.43 9.37926 17.2962C9.44176 17.1715 9.54926 16.9015 9.55051 16.8987L9.55551 16.8862L9.30801 16.6967L9.29776 16.7135C9.29626 16.7162 9.13426 16.9842 9.02926 17.1082C8.59376 17.7037 7.88376 17.7802 7.31426 17.7802C7.27503 17.7788 7.23577 17.7782 7.19651 17.7782C6.49051 17.7782 5.92201 18.0157 5.50676 18.4845C5.48726 18.5067 5.45376 18.51 5.43901 18.4917C5.43026 18.4802 5.42801 18.4622 5.43326 18.4407C5.44476 18.3917 5.44976 18.3775 5.47951 18.3232C5.92151 17.6942 6.67526 17.6007 7.28301 17.5897C7.73226 17.5597 8.05901 17.4815 8.34301 17.3362C8.70726 17.1502 8.97726 16.7382 9.08301 16.4125C9.15301 16.1982 9.18676 15.9697 9.21951 15.749C9.24551 15.5735 9.27276 15.392 9.31701 15.2252C9.32072 15.2149 9.32749 15.206 9.33643 15.1996C9.34536 15.1932 9.35603 15.1897 9.36701 15.1895C9.37201 15.1895 9.37676 15.1905 9.38501 15.1932C9.40826 15.197 9.45176 15.214 9.45176 15.248C9.39051 15.594 9.30676 16.0677 9.46476 16.4632C9.53776 16.6197 9.69451 16.696 9.94276 16.696C10.0933 16.696 10.2575 16.67 10.4165 16.645C10.539 16.6252 10.6555 16.607 10.7558 16.6025C10.7985 16.5987 10.8414 16.5968 10.8843 16.5967C11.0818 16.5967 11.273 16.6355 11.458 16.6727C11.619 16.7052 11.786 16.739 11.9568 16.7472C11.987 16.7487 12.0198 16.7512 12.054 16.754C12.113 16.759 12.1745 16.7637 12.2365 16.7637C12.3815 16.7637 12.4835 16.7352 12.5583 16.674C12.6108 16.6312 12.5923 16.5672 12.569 16.4865L12.5648 16.472C12.5604 16.4568 12.5558 16.4416 12.551 16.4265C12.5178 16.3195 12.4678 16.1575 12.5515 16.083C12.5648 16.0729 12.581 16.0674 12.5978 16.0672C12.6118 16.0672 12.6303 16.0717 12.6365 16.093C12.646 16.124 12.6548 16.1555 12.6635 16.1865C12.7003 16.316 12.738 16.4497 12.8213 16.5642C12.9945 16.7867 13.263 16.997 13.5963 17.1717C13.81 17.32 14.0695 17.5702 14.09 17.9182C14.09 18.0757 13.9375 18.186 13.8243 18.2542C13.6458 18.3437 13.3645 18.4525 13.1945 18.4437C13.0805 18.438 12.9855 18.3655 12.9793 18.3592C12.805 18.199 12.825 18.1437 12.7118 17.953C12.6515 17.8517 12.5888 17.747 12.5105 17.6545C12.402 17.5337 12.2655 17.488 12.0818 17.503C11.9043 17.5172 11.7405 17.5505 11.5455 17.5922C11.5266 17.5956 11.5088 17.6036 11.4936 17.6153C11.4784 17.6271 11.4663 17.6423 11.4583 17.6597C11.4498 17.6804 11.4462 17.7028 11.448 17.7251C11.4498 17.7474 11.4568 17.7689 11.4685 17.788C11.5693 17.9682 11.6675 18.1335 11.7713 18.308L11.8175 18.386C11.8428 18.4285 11.8955 18.434 11.9388 18.434C11.9628 18.434 11.9888 18.4322 12.0155 18.4305C12.0445 18.4282 12.074 18.4262 12.1038 18.4262C12.1938 18.4262 12.2513 18.4475 12.288 18.4935C12.3188 18.541 12.3473 18.5925 12.3745 18.642C12.4425 18.7645 12.5123 18.8912 12.6295 18.982C12.7363 19.0765 12.89 19.1307 13.052 19.1307C13.123 19.1307 13.192 19.1202 13.2565 19.0997C13.7225 18.953 14.1765 18.8022 14.6075 18.5707H14.749C14.7805 18.5672 14.8123 18.5647 14.8443 18.5622C14.9935 18.5512 15.1475 18.54 15.2568 18.4247C15.3922 18.2278 15.5128 18.0211 15.6175 17.8062C15.711 17.6142 15.7118 17.427 15.6198 17.279C15.3448 16.8377 15.2963 16.7215 15.1835 16.4207L15.1805 16.4125L15.172 16.41C15.1395 16.4 15.107 16.3875 15.076 16.375C15.0083 16.3485 14.9385 16.321 14.8575 16.321H14.847C14.7525 16.324 14.689 16.3535 14.6625 16.4062L14.6585 16.4142L15.1573 17.4022C15.1895 17.4797 15.226 17.5572 15.2068 17.6727C15.1875 17.7882 14.9425 18.174 14.869 18.2235C14.8508 18.2357 14.8365 18.2417 14.8258 18.2417C14.8195 18.2417 14.794 18.2367 14.8108 18.1787C14.8575 18.0187 14.9158 17.6415 14.8998 17.5207C14.8818 17.3807 14.464 16.6865 14.4463 16.6567L14.4388 16.6445C14.3743 16.539 14.3075 16.43 14.3133 16.3012C14.3133 16.2425 14.3678 16.2012 14.4075 16.1862C14.48 16.1587 14.5493 16.1482 14.624 16.1317C14.8013 16.0925 14.985 16.052 15.0503 15.9525C15.2503 15.6475 15.3693 15.3295 15.4478 14.8895C15.4513 14.8697 15.465 14.833 15.4928 14.833C15.5093 14.833 15.5253 14.8385 15.5318 14.8765C15.5676 15.0847 15.562 15.2979 15.5152 15.504C15.4684 15.71 15.3813 15.9047 15.259 16.077C15.2414 16.1055 15.2351 16.1396 15.2415 16.1725C15.247 16.2075 15.2868 16.236 15.2868 16.236C15.3833 16.3017 15.7325 16.2642 15.986 16.1302C16.1793 16.1342 16.3625 16.0997 16.5388 16.0665C16.595 16.0557 16.6505 16.0452 16.7055 16.0365C16.723 16.0465 16.737 16.062 16.7403 16.075C16.592 16.2437 16.5008 16.433 16.454 16.6697C16.4128 16.712 16.367 16.7542 16.3225 16.7947C16.16 16.9445 15.9843 17.1112 15.976 17.325C15.976 17.325 15.971 17.4015 16.0535 17.4075C16.08 17.41 16.1088 17.3957 16.137 17.384C16.1675 17.3717 16.1995 17.3592 16.223 17.3622C16.2358 17.3643 16.2474 17.3706 16.2561 17.3802C16.2647 17.3898 16.2698 17.4021 16.2705 17.415L16.0855 17.6875C16.0155 17.8012 16.045 17.9225 16.0735 18.0397C16.0943 18.1047 16.0848 18.1555 16.1025 18.2122C16.1488 18.348 16.314 18.4127 16.4458 18.4127C16.6883 18.402 16.9083 18.322 17.1208 18.2447C17.1585 18.231 17.1965 18.2172 17.2355 18.2035C17.4688 18.1025 17.7805 18.0812 18.151 18.1422C18.449 18.1232 18.673 17.926 18.8898 17.7335C18.9823 17.736 19.0788 17.791 19.1773 17.8975C19.4995 18.245 19.8948 18.4135 20.3858 18.4135C20.404 18.4135 20.4223 18.4135 20.4413 18.413L20.491 18.4092C20.542 18.3972 20.5553 18.3722 20.5585 18.34C20.562 18.3012 20.5323 18.2637 20.4773 18.2375L20.2023 18.0912C19.9825 17.951 19.743 17.7825 19.6773 17.5602C19.6058 17.3235 19.473 17.0817 19.3743 16.9207C19.3553 16.8892 19.3335 16.8582 19.3105 16.8257C19.27 16.7707 19.2342 16.7123 19.2035 16.6512L19.2048 16.65C19.5043 16.758 19.6715 16.98 19.874 17.35C20.024 17.6252 20.4153 17.9225 20.7858 17.9225C20.8343 17.9225 20.8823 17.9175 20.9273 17.9075C20.9673 17.8985 20.9933 17.8737 20.9985 17.8395C21.003 17.809 20.9993 17.7802 20.9653 17.7632H20.966ZM15.619 13.3187C15.6108 13.3482 15.5928 13.3672 15.5733 13.3672C15.5645 13.3672 15.5438 13.3632 15.536 13.3255C15.4583 12.927 15.4113 12.7305 15.3208 12.547C15.2913 12.4875 15.2558 12.4385 15.224 12.395C15.157 12.3035 15.0998 12.2245 15.1645 12.1175C15.1833 12.086 15.231 12.065 15.2828 12.065C15.3069 12.0647 15.3308 12.0699 15.3528 12.08C15.4293 12.1162 15.5038 12.2095 15.5803 12.3647C15.7723 12.7577 15.6203 13.3137 15.6188 13.3192L15.619 13.3187ZM18.1178 17.2922C18.1178 17.2922 18.1058 17.4052 18.053 17.4532C18.0003 17.5012 17.8105 17.5277 17.7115 17.524C17.6123 17.52 17.578 17.5065 17.5568 17.4752C17.5338 17.441 17.5715 17.374 17.5715 17.374C17.5833 17.349 17.7005 17.106 17.935 17.0427C17.935 17.0427 18.011 17.0147 18.0825 17.0505C18.1543 17.0862 18.1208 17.2672 18.118 17.2925L18.1178 17.2922ZM18.7978 15.7237C18.7835 15.8162 18.7615 15.8607 18.7495 15.8825C18.737 15.9042 18.7163 15.953 18.6478 15.9532C18.573 15.9532 18.5788 15.865 18.5778 15.8532C18.5778 15.8532 18.569 15.6082 18.5223 15.505C18.4715 15.3925 18.2258 15.0757 18.0843 15.089C18.0483 15.0925 17.956 15.1477 17.887 15.238C17.8038 15.3465 17.804 15.3597 17.7785 15.3762C17.7528 15.3927 17.7195 15.3837 17.7083 15.32C17.697 15.256 17.6858 15.2037 17.7153 15.0815C17.7453 14.959 17.7748 14.9322 17.8103 14.8447C17.8103 14.8447 17.8845 14.6732 17.9123 14.631C17.9883 14.515 18.0905 14.5225 18.0905 14.5225C18.118 14.5245 18.2055 14.513 18.3 14.6315C18.4093 14.7687 18.3858 14.7562 18.4165 14.8047C18.4473 14.8535 18.4795 14.9037 18.5698 15.0022C18.6598 15.1007 18.7595 15.293 18.787 15.4122C18.8145 15.5312 18.8125 15.6322 18.7983 15.7247L18.7978 15.7237Z" fill="var(--fill-0, white)"/>
<path id="Vector_3" d="M3.83751 18.3545C3.86551 18.3778 3.91001 18.4083 3.97326 18.4083C4.00926 18.4083 4.04776 18.3983 4.08751 18.3783C4.29351 18.274 4.50676 17.8903 4.51501 17.8675C4.53751 17.8058 4.46651 17.749 4.37676 17.6773L4.36626 17.6688C4.32726 17.6373 4.25526 17.6415 4.20726 17.6745L4.10726 17.7415C4.00051 17.8123 3.89026 17.8857 3.77351 17.9837C3.73126 18.0187 3.70826 18.0873 3.70376 18.1388C3.70051 18.18 3.70776 18.2132 3.72501 18.2332C3.73476 18.244 3.81951 18.3395 3.83751 18.3545Z" fill="var(--fill-0, white)"/>
</g>
</svg>
