<svg preserveAspectRatio="none" width="100%" height="100%" overflow="visible" style="display: block;" viewBox="0 0 24 24" fill="none" xmlns="http://www.w3.org/2000/svg">
<g id="Red Bull">
<path id="Vector" d="M22.9402 14.5712C22.8385 14.453 22.6365 14.3828 22.6402 14.2075C22.603 14.1393 22.5957 14.0265 22.5622 13.9377C22.5327 13.864 22.5047 13.7588 22.4067 13.7423C22.2287 13.7125 22.0157 13.7622 21.9045 13.598C21.7895 13.4762 21.9157 13.3322 21.9377 13.214C21.986 13.0627 21.9915 12.8633 21.9677 12.7065C21.962 12.6158 21.9007 12.544 21.9175 12.4515C21.96 12.374 22.0582 12.4313 22.1195 12.4405C22.3492 12.5068 22.6217 12.4738 22.831 12.383C23.1182 12.2448 23.35 11.953 23.337 11.6225C23.2962 11.1923 22.9867 10.8395 22.655 10.5625C22.592 10.509 22.516 10.4518 22.4937 10.3743C22.4862 10.2063 22.6755 10.2892 22.77 10.2467C22.8847 10.2172 22.9997 10.1895 23.0942 10.125C23.3462 9.957 23.398 9.6615 23.35 9.37525C23.3405 9.3495 23.3405 9.31425 23.3035 9.31425C23.259 9.35125 23.2145 9.40475 23.1552 9.438C22.996 9.53225 22.7827 9.5155 22.6142 9.59675C22.4047 9.68725 22.1455 9.81275 22.0547 10.051C22.0305 10.1692 22.0602 10.293 22.1122 10.389C22.3677 10.7915 22.9052 11.0518 22.9922 11.5358C23.0237 11.7313 22.9255 11.8752 22.7735 11.9862C22.5437 12.1245 22.1992 12.0765 21.9695 11.953C21.5245 11.7313 21.1392 11.362 20.663 11.2125C20.363 11.0775 19.994 11.109 19.7255 10.9005C19.5235 10.7693 19.34 10.5977 19.114 10.5405C18.9582 10.4867 18.7822 10.4942 18.6377 10.4167C18.4895 10.2855 18.3337 10.1637 18.1615 10.0767C17.9242 9.95675 17.6592 9.896 17.398 9.8405C17.2405 9.80375 17.185 9.63 17.057 9.54525C16.8385 9.3735 16.5957 9.2515 16.301 9.27375C16.1992 9.28125 16.116 9.34025 16.036 9.40675C15.1875 8.1105 13.718 7.25 12.0465 7.25C10.3752 7.25 8.93725 8.092 8.083 9.36775C7.8905 9.32175 7.65875 9.34025 7.4845 9.414C7.27525 9.52475 7.08625 9.6835 6.86375 9.7575C6.54325 9.9015 6.182 9.92925 5.90575 10.175C5.7445 10.3133 5.60925 10.5313 5.372 10.4943C5.10525 10.4833 4.86625 10.581 4.6645 10.7452C4.4845 10.9077 4.312 11.1017 4.077 11.146C3.87125 11.231 3.621 11.1922 3.41175 11.2697C3.078 11.351 2.815 11.6132 2.53325 11.8145C2.24975 11.9787 1.97925 12.1543 1.62525 12.147C1.3955 12.1303 1.17325 11.9695 1.099 11.7498C1.06352 11.6273 1.06444 11.4972 1.10164 11.3752C1.13884 11.2533 1.21071 11.1448 1.3085 11.063C1.518 10.8137 1.8495 10.664 2.0145 10.378C2.1015 10.2265 2.0885 9.981 1.97375 9.83875C1.755 9.6135 1.44375 9.60625 1.16025 9.536C0.978745 9.488 0.839745 9.3495 0.680245 9.26275C0.619245 9.35675 0.596995 9.46025 0.606245 9.57475C0.637745 9.83325 0.835995 10.0658 1.0825 10.1562C1.227 10.2173 1.39 10.173 1.53825 10.2063C1.579 10.2228 1.61975 10.2635 1.6235 10.3095C1.616 10.3502 1.6125 10.3907 1.5735 10.4202C1.3435 10.6125 1.101 10.797 0.908245 11.0335C0.702495 11.255 0.678245 11.6445 0.785745 11.9215C0.904495 12.241 1.23825 12.4495 1.55875 12.4902C1.792 12.5272 2.0015 12.4662 2.21625 12.4202C2.24625 12.4202 2.25725 12.4495 2.27025 12.4645C2.2905 12.6528 2.26275 12.8208 2.3035 12.9925C2.3405 13.1513 2.39425 13.262 2.45175 13.419C2.45925 13.4725 2.45175 13.5298 2.41475 13.5705C2.29625 13.659 2.17375 13.72 2.0405 13.779L1.71975 13.7992L1.65675 13.829C1.53825 13.9675 1.5345 14.1115 1.4605 14.2665C1.36225 14.4308 1.1805 14.5085 1.02875 14.6025C0.980495 14.68 0.926745 14.7615 0.856245 14.8243C0.802745 14.8723 0.737745 14.885 0.667245 14.8942C0.557995 15.0217 0.532245 15.1972 0.494995 15.3595L0.504245 15.3687C0.685995 15.3855 0.872995 15.4832 1.051 15.3855C1.20275 15.3172 1.236 15.1325 1.351 15.0218C1.442 14.9238 1.57725 14.9957 1.68475 15.018C1.844 15.0255 1.959 14.911 2.09425 14.8593C2.18875 14.7983 2.2665 14.6912 2.36675 14.6302C2.5555 14.5397 2.81875 14.5878 3.015 14.6248C3.17075 14.6673 3.33574 14.6412 3.47274 14.5805C3.59874 14.501 3.71925 14.405 3.862 14.3717C3.98975 14.3072 4.051 14.1633 4.1045 14.045C4.14725 13.9343 4.253 13.8475 4.2435 13.7218C4.21025 13.6943 4.17325 13.6313 4.125 13.6368C4.064 13.7218 4.0195 13.8123 3.949 13.8935C3.6765 14.2628 3.2505 14.3368 2.815 14.3368C2.3685 14.32 1.9645 14.4548 1.65675 14.8038C1.6365 14.8168 1.60675 14.8075 1.59025 14.791C1.57725 14.741 1.61975 14.7115 1.64025 14.6765C1.9145 14.2888 2.3425 14.1983 2.7945 14.189C3.041 14.1723 3.27449 14.1315 3.48399 14.0247C3.71924 13.9065 3.8805 13.6682 3.97675 13.4392C4.0305 13.1807 4.051 12.902 4.11775 12.6565C4.12164 12.6451 4.12981 12.6356 4.14053 12.6301C4.15126 12.6246 4.16371 12.6235 4.17525 12.627C4.19925 12.6325 4.22875 12.647 4.22875 12.6768C4.18425 12.9318 4.15475 13.2287 4.253 13.4742C4.45125 13.733 4.80325 13.5555 5.07 13.5445C5.348 13.5205 5.5925 13.622 5.8595 13.6405C5.991 13.635 6.143 13.6755 6.245 13.5945C6.2745 13.5482 6.24125 13.4965 6.23375 13.4467C6.2245 13.3727 6.17075 13.2692 6.24125 13.2102C6.2615 13.1937 6.29875 13.2028 6.31525 13.2215C6.35225 13.3248 6.369 13.434 6.43575 13.5243C6.56725 13.6923 6.76 13.8217 6.9415 13.9157C7.114 14.034 7.2585 14.202 7.2715 14.4108C7.2715 14.5158 7.17325 14.5915 7.08975 14.6395C6.95075 14.7095 6.79725 14.767 6.634 14.752C6.41525 14.645 6.35975 14.416 6.21525 14.248C6.141 14.1668 6.03 14.1503 5.9205 14.1575C5.802 14.1705 5.6815 14.1743 5.574 14.211C5.5465 14.235 5.537 14.272 5.54075 14.309C5.61475 14.444 5.69625 14.5765 5.778 14.7098C5.8725 14.767 6.00575 14.6782 6.0875 14.7797C6.15775 14.887 6.20225 15.0122 6.30975 15.0938C6.41175 15.1842 6.56925 15.2267 6.7045 15.1675C7.00825 15.0752 7.312 14.9755 7.59575 14.8243H7.69025C7.80525 14.8113 7.93274 14.8205 8.01624 14.7338C8.04049 14.6968 8.06275 14.6618 8.085 14.6265C8.9375 15.9043 10.3937 16.75 12.05 16.75C13.7067 16.75 15.1557 15.91 16.01 14.6375C16.023 14.6745 16.0375 14.7115 16.06 14.7522C16.1377 14.8372 16.245 14.7597 16.3435 14.7835C16.4435 14.8075 16.4785 14.9275 16.5787 14.9552C16.8012 15.029 17.0382 15.0697 17.2607 15.1547C17.3775 15.1915 17.5405 15.2378 17.6425 15.1435C17.785 15.0643 17.824 14.9128 17.848 14.7688C17.8925 14.7078 17.9832 14.7318 18.05 14.7133C18.1742 14.6303 18.2132 14.4845 18.304 14.3737L18.3205 14.3162C18.3095 14.2795 18.2762 14.259 18.2447 14.2463H17.824C17.6315 14.272 17.6145 14.4845 17.533 14.6155C17.4885 14.6968 17.396 14.73 17.3032 14.7225C17.107 14.671 16.864 14.6395 16.7732 14.4272C16.7605 14.3735 16.7605 14.309 16.803 14.2723C16.905 14.1538 17.0272 14.019 17.155 13.9213C17.3367 13.8843 17.5145 13.7495 17.6072 13.5887C17.6572 13.5187 17.648 13.4173 17.7312 13.3638C17.7555 13.36 17.785 13.3637 17.8017 13.3875C17.8387 13.5075 17.7685 13.6165 17.7312 13.72C18.1797 13.766 18.554 13.5888 18.9877 13.6055C19.1727 13.6055 19.3415 13.6425 19.5212 13.6313C19.703 13.622 19.8992 13.5482 19.9567 13.36C20.0382 13.118 19.9772 12.8448 19.9345 12.614L19.957 12.579C19.9845 12.5623 20.0105 12.5825 20.031 12.599C20.1067 12.8152 20.1605 13.0793 20.194 13.3155C20.2272 13.5243 20.3162 13.7125 20.433 13.888C20.6425 14.2 21.013 14.322 21.378 14.2443C21.8227 14.211 22.2045 14.392 22.475 14.7355V14.7557C22.4657 14.7725 22.451 14.7927 22.4305 14.789C22.197 14.608 21.9617 14.416 21.6615 14.379C21.3447 14.322 21.0647 14.4733 20.7702 14.3553C20.446 14.248 20.1957 13.9177 20.0677 13.622H20.0345C20.0105 13.6277 19.9937 13.6517 19.9902 13.6757L20.0327 13.9305C20.081 14.1355 20.1477 14.3773 20.37 14.4715C20.5425 14.573 20.711 14.7207 20.924 14.6615C21.2982 14.5805 21.6765 14.6857 21.9615 14.8962C22.058 14.9497 22.1302 15.0475 22.234 15.0828C22.3452 15.1288 22.4805 15.1028 22.5715 15.031C22.7807 14.9625 22.829 15.223 22.9735 15.3173C23.0995 15.439 23.3235 15.391 23.4922 15.391L23.52 15.3708C23.4997 15.2028 23.455 15.0715 23.3885 14.9237C23.1792 14.9367 23.0752 14.7115 22.953 14.5787L22.9402 14.5712ZM16.2157 10.2855C16.2602 10.258 16.3475 10.2487 16.3715 10.3095C16.4047 10.3632 16.3677 10.4037 16.3417 10.4445C16.1732 10.605 15.9692 10.7675 15.8452 10.9615C15.8007 11.0223 15.7675 11.0925 15.734 11.1628L15.7045 11.1702C15.671 11.0722 15.7137 10.9688 15.7377 10.8745C15.8247 10.6458 16.0177 10.4315 16.214 10.2855H16.2157ZM7.97925 10.6327C8.00325 10.6067 8.04975 10.6033 8.08125 10.616C8.148 10.6605 8.18875 10.7305 8.22375 10.797C8.30175 10.978 8.30175 11.218 8.24975 11.41L8.2165 11.4137C8.183 11.2457 8.148 11.074 8.08125 10.9152C8.044 10.821 7.92 10.7435 7.97925 10.6327ZM16.6882 13.565L16.4382 13.9325C16.3807 14.0135 16.3232 14.104 16.303 14.1945C16.2825 14.298 16.2955 14.3957 16.303 14.4937L16.2622 14.4698C16.1972 14.3348 16.1232 14.1632 16.1935 14.0042L16.5085 13.5168L16.5215 13.48C16.4512 13.443 16.3732 13.406 16.299 13.3912C16.2622 13.4062 16.238 13.443 16.214 13.478L15.9045 14.034C15.8842 14.1003 15.8637 14.1483 15.8805 14.2185C15.8915 14.2758 15.9082 14.333 15.9287 14.3848C15.5191 15.046 14.9473 15.5916 14.2675 15.9697C13.5877 16.3478 12.8226 16.5458 12.0447 16.545C10.403 16.545 9.00225 15.7012 8.19225 14.4307C8.209 14.3995 8.2275 14.37 8.24425 14.3368C8.31475 14.2425 8.28125 14.0985 8.25175 13.9967C8.11275 13.8252 8.033 13.6333 7.96075 13.4355C7.89025 13.4155 7.82925 13.3747 7.75125 13.3785C7.71425 13.3932 7.6605 13.386 7.64025 13.4263L7.9645 14.0653C7.98475 14.1133 8.01075 14.1852 7.99775 14.25C7.95325 14.3847 7.88275 14.5158 7.77175 14.6138C7.75125 14.6248 7.72549 14.6377 7.71049 14.61C7.74774 14.4715 7.8125 14.32 7.805 14.1595L7.49 13.5907C7.453 13.5132 7.38625 13.443 7.39 13.3525C7.39 13.3137 7.42699 13.2825 7.46049 13.2675C7.59949 13.2232 7.768 13.2307 7.8755 13.12C8.01625 12.902 8.098 12.6897 8.135 12.433C8.1425 12.4165 8.148 12.3923 8.172 12.3923C8.196 12.3833 8.2015 12.4127 8.21275 12.4255C8.25525 12.708 8.19775 12.9942 8.033 13.216C8.02375 13.2455 8.01274 13.2805 8.04599 13.3027C8.20349 13.3527 8.3665 13.3028 8.49825 13.2325C8.66675 13.2363 8.82225 13.1955 8.97425 13.1698L9.00774 13.2122C8.9092 13.3208 8.84364 13.4552 8.81875 13.5997C8.6945 13.7272 8.5185 13.8382 8.5055 14.0227C8.526 14.1132 8.60375 14.0283 8.6575 14.0358C8.6815 14.0395 8.69825 14.0597 8.69825 14.0857L8.574 14.2647C8.509 14.3717 8.587 14.4938 8.587 14.5953C8.61475 14.6783 8.715 14.719 8.80025 14.719C8.9835 14.7115 9.1485 14.6415 9.3135 14.5822C9.49325 14.5047 9.72099 14.5102 9.91749 14.5417C10.11 14.5287 10.2547 14.4013 10.3992 14.2758C10.477 14.2758 10.5475 14.3293 10.5992 14.3848C10.8217 14.623 11.109 14.7245 11.4332 14.7172L11.463 14.7005C11.4832 14.6802 11.476 14.643 11.4517 14.6265L11.2572 14.5288C11.122 14.442 10.9532 14.3293 10.9087 14.178C10.868 14.043 10.7937 13.8955 10.7125 13.7642C10.6847 13.6997 10.618 13.646 10.59 13.5798L10.62 13.563C10.833 13.6367 10.9607 13.8455 11.059 14.0337C11.2145 14.2517 11.4407 14.4363 11.7372 14.3848L11.7612 14.3645V14.3165L11.613 14.2425C11.3665 14.0985 11.2682 13.829 11.1165 13.6165C11.0627 13.539 10.97 13.4927 10.92 13.4115C10.742 12.9332 10.59 12.4532 10.5457 11.905C10.5085 11.77 10.4807 11.6317 10.4047 11.5042C10.1822 11.1442 9.89525 10.8172 9.6155 10.485C9.5895 10.461 9.5505 10.4388 9.53775 10.4075L8.56275 9.6005C8.476 9.534 8.3795 9.486 8.2795 9.44C9.10025 8.2415 10.4807 7.453 12.0465 7.453C13.6125 7.453 15.069 8.284 15.8822 9.53775C15.28 10.04 14.6092 10.4092 14.0662 11.0002C13.681 11.3972 13.5772 11.9013 13.4345 12.3888C13.2287 13.1255 13.1417 13.936 12.3987 14.3903C12.3857 14.4105 12.3857 14.4475 12.4117 14.466C12.608 14.514 12.8027 14.4365 12.9342 14.3015C13.062 14.1023 13.1972 13.9083 13.3695 13.7238L13.4105 13.7032C13.4307 13.707 13.4547 13.72 13.4475 13.7478C13.3975 13.912 13.2492 14.0302 13.201 14.1945C13.136 14.3902 12.9472 14.5418 12.786 14.6803L12.7802 14.706C12.7802 14.7263 12.8027 14.7465 12.823 14.7502C13.1842 14.767 13.4437 14.5103 13.6847 14.2665C13.7087 14.2408 13.7422 14.2462 13.7755 14.2555C13.881 14.3367 13.9812 14.4605 14.12 14.488C14.2682 14.468 14.424 14.4475 14.5815 14.4605C14.8002 14.527 15.0077 14.6155 15.2265 14.6892C15.3375 14.6857 15.421 14.5805 15.4765 14.488C15.521 14.383 15.456 14.2757 15.4635 14.1742C15.5172 14.141 15.5785 14.1835 15.636 14.1667C15.66 14.1502 15.6802 14.1225 15.6802 14.093C15.6395 13.9045 15.471 13.7642 15.4172 13.5905C15.3357 13.3655 15.067 13.2305 15.017 12.987C15.028 12.9703 15.0502 12.9463 15.0707 12.963C15.2485 13.0885 15.4042 13.2565 15.621 13.2898C15.786 13.3063 15.9545 13.323 16.1175 13.31C16.1417 13.3025 16.162 13.273 16.1547 13.2455C16.0842 13.0977 16.0195 12.95 15.9787 12.7913C15.9212 12.5918 15.8805 12.313 15.9452 12.0913C15.9565 12.0748 15.9787 12.047 16.0027 12.0545C16.036 12.0637 16.0565 12.0988 16.062 12.1283C16.086 12.4755 16.1027 12.795 16.312 13.07C16.403 13.214 16.5587 13.2417 16.6697 13.3525C16.7105 13.41 16.7197 13.504 16.6902 13.5705L16.6882 13.565ZM9.80274 13.8418C9.83599 13.8418 9.88024 13.8382 9.88974 13.8825C9.89724 13.96 9.89724 14.0543 9.83224 14.104C9.75138 14.1288 9.66668 14.1388 9.58224 14.1335C9.56174 14.126 9.534 14.1135 9.54125 14.0892C9.5785 13.9785 9.68574 13.8678 9.80449 13.8438L9.80274 13.8418ZM9.734 12.4312C9.80275 12.361 9.78774 12.158 9.94349 12.2225C10.051 12.2797 10.0712 12.3943 10.149 12.4718C10.2845 12.6233 10.3752 12.7893 10.3307 12.9998C10.3102 13.0405 10.314 13.1033 10.2602 13.1143C10.2362 13.1235 10.2157 13.1068 10.2157 13.081C10.2065 12.9703 10.2065 12.856 10.1417 12.7653C10.0675 12.6878 9.98975 12.5513 9.87125 12.5513C9.78975 12.5753 9.72675 12.6713 9.6785 12.7358L9.6545 12.7395C9.61 12.625 9.69875 12.527 9.73775 12.4295L9.734 12.4312ZM14.448 12.6325C14.3702 12.6287 14.3257 12.6932 14.263 12.7265C14.1572 12.8207 14.0125 12.9185 13.9885 13.0627C13.9682 13.1162 13.9775 13.1902 13.931 13.2195C13.9015 13.227 13.87 13.203 13.87 13.177C13.8515 12.9888 13.9145 12.8078 14.0552 12.6823C14.1905 12.5715 14.2852 12.42 14.3962 12.2928C14.4572 12.2815 14.5037 12.326 14.5277 12.372C14.6037 12.4662 14.6557 12.5678 14.7002 12.6785C14.7075 12.7025 14.7002 12.7265 14.6927 12.7525C14.676 12.7727 14.652 12.8005 14.6222 12.78C14.5407 12.7525 14.5537 12.6232 14.4497 12.6342L14.448 12.6325ZM14.6092 14.1263C14.5592 14.1633 14.4742 14.1427 14.411 14.1337C14.337 14.0912 14.3202 14.0063 14.3127 13.925C14.3127 13.9045 14.3165 13.8843 14.3387 13.8675C14.4257 13.8675 14.5112 13.888 14.5687 13.9583C14.5925 14.0118 14.6387 14.069 14.6092 14.1263Z" fill="var(--fill-0, white)"/>
<path id="Vector_2" d="M6.49324 14.1853C6.57649 14.274 6.57274 14.4143 6.66549 14.4828C6.78799 14.5028 6.89899 14.453 6.99349 14.381C7.04724 14.3348 6.96949 14.2775 6.96199 14.224C6.90824 14.1465 6.94524 13.9915 6.81374 13.9878C6.68224 14.008 6.55074 14.0118 6.41899 14.0118L6.38199 14.0375C6.35599 14.115 6.47099 14.115 6.49124 14.1853H6.49324ZM17.0775 14.0745C17.0275 14.1483 16.983 14.2388 16.996 14.3368C17.009 14.44 17.1237 14.4455 17.198 14.477C17.2682 14.4863 17.3702 14.5103 17.4072 14.4365C17.448 14.3293 17.485 14.2148 17.5017 14.1003C17.4925 14.067 17.461 14.056 17.4277 14.0635C17.3165 14.0835 17.1887 14.0598 17.0792 14.0763L17.0775 14.0745ZM0.541241 14.5988C0.589322 14.6193 0.643025 14.6226 0.693241 14.608C0.821241 14.5343 0.902741 14.394 0.969491 14.2758C0.956491 14.2315 0.911991 14.1983 0.874991 14.165C0.848991 14.1448 0.811991 14.1613 0.783991 14.1688C0.693241 14.2463 0.598991 14.309 0.500491 14.37C0.459741 14.3975 0.476491 14.4605 0.467241 14.5048C0.467241 14.5453 0.517241 14.5745 0.541241 14.5988ZM23.2645 14.189C23.183 14.119 23.096 14.2223 23.0552 14.2833C23.083 14.381 23.1665 14.464 23.2277 14.5545C23.2438 14.5783 23.2649 14.5982 23.2895 14.6129C23.3141 14.6276 23.3417 14.6367 23.3702 14.6395C23.4277 14.6395 23.4722 14.61 23.5147 14.5785C23.5445 14.5418 23.576 14.4955 23.563 14.4438C23.487 14.3368 23.363 14.272 23.2645 14.1908V14.189ZM0.261491 14.6193C0.194741 14.6505 0.126491 14.7118 0.109491 14.7855C0.0892411 14.9165 0.116991 15.0403 0.0149911 15.1343C0.0114911 15.1583 -0.0145089 15.188 0.0114911 15.2118C0.102241 15.2395 0.187491 15.2785 0.281991 15.2968L0.298491 15.2875C0.348491 15.1288 0.383741 14.9535 0.441241 14.813V14.7725C0.392991 14.7098 0.342991 14.632 0.261491 14.6175V14.6193ZM23.93 15.04C23.9095 14.946 23.9355 14.815 23.8725 14.73C23.8187 14.6893 23.7687 14.6265 23.7 14.6433C23.6425 14.6933 23.5575 14.7503 23.5685 14.837C23.6185 14.9848 23.65 15.092 23.6797 15.2415C23.6947 15.271 23.6797 15.3265 23.7242 15.3265L23.9872 15.2415C24.0317 15.1675 23.9465 15.1103 23.9297 15.042V15.0403L23.93 15.04Z" fill="var(--fill-0, white)"/>
</g>
</svg>
